<?xml version="1.0" encoding="UTF-8"?>
<svg id="uuid-5596a0ea-426c-4455-b169-7a9db0386629" data-name="Layer 2" xmlns="http://www.w3.org/2000/svg" viewBox="0 0 44.71 25.87">
  <defs>
    <style>
      .uuid-ce7c455e-e3f4-42e1-8070-b5403b0cac92 {
        fill: #231916;
      }
    </style>
  </defs>
  <g id="uuid-5f8ea257-02ea-46ed-a2d8-b895bc635878" data-name="design">
    <g>
      <g>
        <path class="uuid-ce7c455e-e3f4-42e1-8070-b5403b0cac92" d="M2.92,5.19s0,.07,0,.09c0,.01.01.04.04.09.02.04.03.08.03.1-.02.08-.03.13-.03.13,0,.02.01.05.03.1-.04.07-.08.14-.13.2-.06.1-.08.17-.07.21,0,.02.01.03.02.03,0,.03-.05.1-.16.2-.03.02-.06.07-.1.13-.04.07-.07.11-.08.11-.06.01-.13.06-.21.13-.08.07-.15.12-.2.13l-.31.07c-.11.02-.23.06-.36.11-.13.05-.2.07-.21.08-.03,0-.07,0-.11-.02-.05-.02-.08-.03-.11-.02-.07.01-.14,0-.21-.02v-.11c-.05-.06-.08-.12-.09-.18-.01-.04-.02-.11-.03-.19,0-.08-.01-.14-.02-.17-.01-.06-.04-.16-.08-.3s-.07-.24-.08-.3c0-.02,0-.06,0-.11,0-.05.01-.09,0-.12,0-.03-.02-.07-.05-.11-.03-.05-.04-.08-.05-.1,0-.04-.02-.1-.04-.18-.02-.07-.04-.13-.04-.16,0-.03,0-.07,0-.12,0-.05.01-.09,0-.11,0-.02-.02-.05-.06-.1,0-.02.01-.04.03-.07.02-.03.03-.04.02-.06,0,0-.03-.05-.09-.13,0-.02,0-.05.02-.09.02-.04.02-.08.02-.1,0-.02-.02-.06-.05-.11-.03-.05-.04-.09-.05-.12,0-.05-.01-.12,0-.23,0-.1,0-.18,0-.24v-.04c-.06-.02-.08-.04-.09-.07,0-.01,0-.03.02-.05.01-.02.02-.03.02-.04,0,0-.02-.02-.04-.03-.02-.01-.04-.03-.04-.04,0-.01,0-.03.02-.05.02-.02.02-.05.02-.07-.01-.08-.02-.12-.02-.15.01-.04.05-.07.11-.08.02,0,.06,0,.1,0s.07.01.09,0c.1-.02.16-.02.19,0,.04.03.08.1.1.21,0,.03,0,.07-.02.12s-.03.09-.02.11c0,.01.01.03.03.06.02.02.03.04.03.06,0,.02,0,.04,0,.07,0,.03,0,.05,0,.07.02.09.04.16.08.2.04.07.07.11.07.11-.04.08-.05.14-.04.18.06.29.15.42.28.4.03,0,.07-.03.12-.08.05-.05.08-.08.11-.08s.07,0,.12.01c.05.01.09.02.12.02l.07-.11c.06,0,.12.02.2.05.04-.03.09-.05.14-.06.07-.01.17,0,.29.04.16.05.26.08.3.09,0,.05.07.12.17.22.1.09.16.17.17.24,0,.04.03.09.06.15.03.06.05.11.06.15,0,.02,0,.05,0,.09ZM2.33,5.22c-.04-.08-.07-.14-.07-.17v-.09c-.09.01-.17,0-.26-.06s-.17-.08-.25-.07c-.07.04-.11.07-.12.07-.02,0-.05,0-.08-.02-.03-.02-.06-.02-.08-.02-.03,0-.05.03-.08.08-.02.05-.05.07-.08.08-.12.02-.19.04-.22.05-.08.04-.11.11-.09.2,0,.04.01.09.01.14,0,.05,0,.08,0,.1,0,.01.01.04.04.07.02.03.04.06.04.08,0,.03,0,.07,0,.12,0,.05-.01.1,0,.12l.03.09.05.04c-.01.1-.01.17,0,.22.02.09.1.13.25.12.02,0,.05,0,.08.02.03.01.05.02.07.02.02,0,.08-.03.16-.09.08-.05.14-.08.17-.09.02,0,.04,0,.08,0,.03,0,.06,0,.08-.01,0-.07.05-.15.14-.24.09-.09.15-.16.16-.2.03-.12.04-.24.05-.36,0-.05-.04-.11-.08-.19Z"/>
        <path class="uuid-ce7c455e-e3f4-42e1-8070-b5403b0cac92" d="M8.67,5.05s0,.02,0,.04l-.07.08v.02c.03.13.03.2.01.21-.04.01-.08.08-.1.21-.06.01-.12.03-.19.06-.07.02-.12.04-.15.05,0,0-.05,0-.17.02,0,.05-.02.08-.04.08-.01,0-.08,0-.21-.01l-.08.03-.07-.03h-.04s-.06.02-.08.04c-.02,0-.16-.07-.4-.22-.05,0-.08.04-.08.1,0,.06-.02.09-.05.1-.12.02-.19.07-.21.12-.02.06-.08.1-.18.12-.05,0-.12.03-.21.06-.1.03-.16.04-.21.05-.17.03-.29.05-.37.05-.05,0-.13-.02-.21-.07-.08-.04-.13-.07-.13-.07-.06.01-.22-.04-.48-.16l-.32-.45s-.01-.03-.02-.04c0-.01,0-.04,0-.07,0-.03.01-.05.01-.07,0-.02-.02-.05-.04-.09-.02-.04-.04-.07-.05-.1-.01-.05-.01-.13,0-.23,0-.11,0-.18,0-.22,0-.02-.01-.03-.04-.05-.02-.02-.03-.03-.04-.05,0-.03,0-.07.02-.12,0-.02-.02-.03-.06-.03-.1-.24-.15-.37-.15-.37v-.02s.06-.09.06-.09v-.04c-.04-.23.04-.36.24-.4.02,0,.05,0,.08.02.03.01.06.02.08.01.09-.02.12-.02.09-.03v.02s.04.1.07.15c.03.05.04.09.05.11,0,.02,0,.05,0,.09-.01.04-.01.07,0,.09.01.07.02.13.01.16,0,.03,0,.05,0,.06,0,.01.02.03.04.06.02.02.03.04.04.06l-.03.08c.05.13.08.2.08.22,0,.04.02.09.04.16.02.07.03.12.04.15.04.21.07.33.08.35.03.06.12.15.28.25.07,0,.15.02.25.06.1.04.18.05.25.04.29-.06.5-.21.62-.45.1-.21.12-.48.06-.79-.01-.08-.04-.14-.08-.2-.02-.07-.02-.21-.02-.43-.08-.1-.12-.17-.13-.19,0-.02,0-.04.01-.08s.02-.05.01-.07c0-.02-.01-.03-.03-.04s-.03-.02-.03-.02l.1-.22.22.05c.07-.04.12-.07.14-.07.02,0,.05.04.1.12.05.08.08.13.08.16.02.11.04.23.05.37,0,.06.03.14.07.23.05.11.09.18.09.22,0,.02,0,.06-.02.1-.02.04-.02.07-.02.09,0,.02.02.04.04.05.02.02.03.03.04.04,0,.12,0,.23.02.36,0,.01.02.02.06.03.04,0,.06.02.07.06,0,.02,0,.07,0,.15.02,0,.09.05.22.14l.07-.02c.07.02.12.04.15.05l.08-.1.1.02s.06-.1.08-.14c.06-.09.09-.14.1-.14.01,0,.06,0,.13.04h.11s.05.06.05.06c.1.05.14.08.14.09Z"/>
        <path class="uuid-ce7c455e-e3f4-42e1-8070-b5403b0cac92" d="M12.55,4.92s.01.04.03.05c.01.02.02.03.02.03,0,.02-.03.05-.09.07,0,0-.03.08-.09.22-.04.11-.1.17-.18.18,0,0-.04,0-.1,0-.02,0-.05.02-.09.06-.04,0-.07,0-.09,0-.02,0-.04.02-.06.06s-.04.06-.08.06c-.03,0-.07,0-.13-.02-.06-.01-.1-.02-.13-.02-.03,0-.08.03-.15.06-.1-.02-.15-.03-.16-.03-.05.01-.08.01-.1,0-.01,0-.03-.04-.07-.11l-.14.02s-.06-.1-.13-.16c-.07-.06-.11-.12-.12-.17,0-.02,0-.05,0-.08,0-.03,0-.06,0-.07,0-.02-.01-.05-.03-.08-.02-.04-.03-.07-.04-.09,0-.06-.02-.1-.07-.11-.04-.02-.07-.03-.07-.04,0-.02,0-.06,0-.13,0-.07,0-.12,0-.15,0,0-.02-.07-.06-.21-.03-.09-.04-.16-.02-.21.02-.07.02-.12.02-.13,0-.02-.02-.04-.04-.07-.02-.03-.04-.05-.04-.07v-.03c.05-.12.07-.21.07-.26l-.1-.11-.02-.12c-.06-.04-.12-.06-.17-.05.04,0-.02.02-.18.07-.02,0-.05,0-.08,0-.03-.01-.06-.02-.08-.01-.01,0-.03.02-.05.04s-.03.04-.05.04c-.02,0-.05,0-.08-.01-.04-.01-.06-.02-.08-.01l-.06.02c-.06-.02-.1-.03-.11-.02l-.06.02s-.04.01-.06.01c-.02,0-.03-.02-.04-.04s0-.05,0-.08c0-.02-.02-.06-.04-.11-.02-.05-.04-.08-.04-.1v-.04s.04-.04.06-.09c.02-.05.05-.08.07-.08.04,0,.08,0,.12.02l.04-.05h.02s.02,0,.05,0c.02,0,.04.01.05.01.01,0,.02-.01.04-.03.02-.02.03-.02.04-.03.02,0,.05,0,.09.02.07-.05.11-.07.12-.08.02,0,.05,0,.08,0s.06.01.08,0c.01,0,.06-.03.15-.09,0-.02,0-.04,0-.07,0-.02-.02-.06-.04-.11-.02-.05-.03-.08-.04-.11,0-.03,0-.08.02-.14.02-.06.03-.1.02-.14-.02-.08-.02-.16-.02-.23,0-.07,0-.11,0-.11,0-.02-.03-.06-.07-.1-.04-.05-.06-.07-.06-.09.01-.03.03-.06.04-.09-.02-.04-.02-.1,0-.16s.05-.1.09-.11c.14-.02.23-.03.28-.02.08.02.13.09.15.2,0,.01,0,.04-.01.08,0,.04-.01.06-.01.08,0,.02.02.04.05.06.03.02.05.04.05.07-.05.08-.06.16-.04.25.01.06.04.11.07.15-.06.02-.08.05-.07.1.01.06.08.14.19.24,0,.11.02.17.05.18l.08-.04c.07.02.12.03.14.03.01,0,.03-.01.06-.03.02-.01.04-.02.05-.03.02,0,.04,0,.08,0,.03.01.06.01.07.01.02,0,.04-.02.06-.05.02-.03.04-.05.07-.05.02,0,.04,0,.08.02.03.02.06.03.08.02s.04-.02.06-.04c.02-.02.04-.04.06-.04.01,0,.04,0,.07,0,.03,0,.05.01.07,0,.26-.05.4-.04.41.03,0,.02,0,.05,0,.08,0,.04-.01.06,0,.08,0,.02.01.04.03.07.01.03.02.06.03.08.01.06-.02.1-.1.11h-.05s-.03,0-.04,0c-.02,0-.03.02-.03.06,0,.04,0,.05-.02.06-.02,0-.04,0-.07-.02-.03-.01-.05-.02-.07-.02-.06.07-.1.1-.12.11-.01,0-.07,0-.18-.01-.1-.01-.17-.01-.21,0-.03,0-.07.02-.12.05-.05.03-.09.04-.11.05-.02,0-.04,0-.08,0-.03,0-.05-.01-.07,0-.12.02-.15.19-.09.49.01.07.02.14.01.21,0,.07,0,.12,0,.14,0,.04.03.07.08.11v.02s0,.05-.02.08c-.01.03-.02.06-.02.09,0,.03.03.08.07.14s.06.1.07.11c0,.03,0,.06-.02.11-.02.05-.03.08-.02.11,0,0,0,.02.02.02.05.05.1.11.14.2.04.08.09.14.13.15.07.03.17.03.32,0,.03,0,.06-.02.11-.06.04-.03.08-.05.1-.06.03,0,.06-.05.11-.15.05-.09.07-.16.08-.21.04-.04.06-.08.05-.1,0-.01-.02-.05-.06-.11l.08-.04h.07s0-.08,0-.11c0-.04.02-.06.06-.07.05-.01.11.03.19.11h.11s.08.08.08.08v.02s0,.06-.01.1c-.01.04-.02.07-.02.1l.02.13c-.1.08-.15.15-.14.22Z"/>
        <path class="uuid-ce7c455e-e3f4-42e1-8070-b5403b0cac92" d="M17.08,4.05s.01.04.02.05.02.03.02.03c0,.02-.03.05-.09.07,0,0-.03.08-.08.22-.04.11-.1.17-.18.18,0,0-.04,0-.1,0-.02,0-.05.02-.1.06-.04,0-.07,0-.09,0-.02,0-.04.02-.06.06-.01.04-.04.06-.08.06-.03,0-.07,0-.13-.02-.05-.01-.1-.02-.13-.02-.03,0-.08.03-.15.06-.1-.02-.15-.03-.16-.03-.05.01-.09.01-.1,0-.01,0-.04-.05-.07-.11l-.14.02s-.06-.1-.13-.16c-.07-.06-.11-.12-.12-.17,0-.02,0-.05,0-.08,0-.04,0-.06,0-.07,0-.02-.02-.05-.04-.08-.02-.04-.03-.07-.04-.09,0-.06-.02-.1-.07-.11s-.07-.03-.07-.04c0-.02,0-.06,0-.13,0-.07,0-.12,0-.15,0,0-.02-.07-.06-.21-.03-.09-.04-.16-.02-.21.02-.07.02-.12.02-.13,0-.02-.02-.04-.04-.07-.02-.03-.04-.05-.04-.07v-.03c.05-.12.07-.21.07-.26l-.1-.11v-.12c-.08-.04-.14-.06-.19-.05.04,0-.02.02-.18.07-.02,0-.05,0-.08,0-.04-.01-.06-.02-.08-.01-.02,0-.03.02-.05.04s-.03.04-.05.04c-.02,0-.05,0-.08-.01s-.06-.02-.08-.01l-.06.02c-.06-.02-.1-.03-.11-.03l-.07.02s-.04.01-.06.01c-.02,0-.03-.02-.04-.04,0-.02,0-.05,0-.08,0-.02-.02-.06-.04-.11-.02-.05-.04-.08-.04-.1v-.04s.04-.04.06-.09c.02-.05.05-.08.07-.08.04,0,.08,0,.12.02l.04-.05h.02s.03,0,.05,0c.02,0,.04.01.05,0,0,0,.02-.01.04-.03.02-.02.03-.02.04-.03.02,0,.05,0,.09.02.07-.05.11-.07.12-.08.02,0,.05,0,.08,0s.06.01.08,0c.01,0,.06-.03.15-.09,0-.02,0-.04,0-.07,0-.02-.02-.06-.04-.11-.02-.05-.03-.09-.04-.11,0-.03,0-.08.02-.14s.03-.1.02-.14c-.02-.08-.02-.16-.02-.23,0-.07,0-.11,0-.11,0-.02-.03-.06-.07-.1-.04-.05-.06-.07-.06-.09.01-.03.03-.06.04-.09-.02-.04-.02-.09,0-.16s.04-.1.09-.11c.13-.02.23-.03.28-.02.08.02.13.09.15.2,0,.01,0,.04-.01.08-.01.04-.01.06-.01.08,0,.02.02.04.05.06.03.02.05.04.05.07-.05.08-.06.16-.04.25.01.06.04.11.07.15-.06.02-.08.05-.07.1.01.06.07.14.19.24,0,.11.02.16.05.18l.08-.04c.07.02.12.03.14.03.01,0,.03-.01.05-.03.02-.01.04-.02.06-.03.02,0,.04,0,.08,0,.03.01.05.02.07.01.02,0,.04-.02.06-.05.02-.03.05-.05.07-.05.02,0,.04,0,.08.02.03.02.06.03.08.02s.04-.02.06-.04c.02-.02.04-.04.06-.04.01,0,.04,0,.07,0,.03,0,.05.01.07,0,.26-.05.4-.04.41.03,0,.02,0,.05,0,.08,0,.04-.01.07,0,.08,0,.02.01.04.03.07.01.03.02.06.03.08.01.06-.02.1-.1.11h-.05s-.03,0-.04,0c-.02,0-.03.02-.03.06,0,.04,0,.05-.02.06-.02,0-.04,0-.07-.02-.03-.01-.05-.02-.07-.02-.06.07-.1.1-.12.11-.02,0-.07,0-.18-.01-.1-.01-.17-.01-.21,0-.03,0-.07.02-.12.05-.05.03-.09.04-.11.05-.02,0-.04,0-.08,0s-.05,0-.07,0c-.11.02-.14.19-.09.49.01.07.02.14.01.21,0,.07,0,.12,0,.14,0,.04.03.07.08.11v.02s0,.05-.01.08c-.02.03-.02.06-.02.09,0,.03.03.08.07.14.04.06.06.1.07.11,0,.02,0,.06-.02.11-.02.05-.02.08-.02.11,0,0,0,.02.02.02.05.05.09.11.14.2.04.08.09.14.13.15.07.03.17.03.32,0,.03,0,.07-.02.11-.06.04-.03.07-.05.1-.06.03,0,.06-.05.11-.14.05-.09.07-.16.08-.21.04-.04.06-.08.06-.1,0-.01-.02-.05-.06-.11l.08-.04h.07s0-.08,0-.11c0-.04.02-.06.06-.07.05-.01.11.03.18.11h.11s.08.08.08.08v.02s0,.06-.01.1c-.01.04-.02.07-.02.1l.03.13c-.11.08-.15.15-.14.22Z"/>
        <path class="uuid-ce7c455e-e3f4-42e1-8070-b5403b0cac92" d="M21.41,1.75s.04.05.05.07c0,.01-.01.06-.04.14.02.06.02.11,0,.14-.18.08-.3.13-.36.14-.03,0-.08.02-.15.05-.06.02-.11.04-.14.05-.02,0-.05,0-.08-.02-.03-.01-.06-.02-.08-.02-.02,0-.06.02-.1.04-.05.02-.08.03-.11.04-.03,0-.08,0-.15,0-.07,0-.12,0-.15,0-.03,0-.08.01-.15.02-.06,0-.11.01-.13.02-.02,0-.06.02-.1.04-.02.01-.07,0-.14,0-.02,0-.04.02-.07.04-.03.03-.05.04-.07.04-.01,0-.04,0-.1,0-.04,0-.07.01-.1.02l-.04.06s.04.05.08.07c-.02.02-.04.05-.05.08.03.11.12.21.29.3.17.09.31.12.43.1.02,0,.04-.02.08-.04.03-.02.06-.03.08-.04.23-.04.41-.09.54-.14.05-.06.08-.09.09-.09.02,0,.05,0,.08.02.04-.01.06-.05.07-.12.18-.09.3-.15.37-.16h.04s.06.1.12.16c.06.07.09.11.1.14,0,0-.02.05-.07.12-.05.07-.08.13-.09.17-.07.02-.16.08-.29.18-.13.11-.2.16-.24.17-.01,0-.04,0-.06,0-.03,0-.05-.01-.06,0-.02,0-.05.03-.08.07-.03.04-.06.06-.08.07-.05,0-.11.02-.18.04-.07.01-.11.02-.13.02-.01,0-.03,0-.05,0s-.04-.01-.05,0c-.02,0-.05.01-.08.03s-.06.03-.08.04c-.08.01-.24-.01-.5-.09-.04.02-.14,0-.28-.1-.15-.09-.23-.14-.23-.16-.02-.1-.07-.17-.16-.23-.09-.06-.14-.11-.15-.17-.02-.11-.07-.19-.15-.24.03-.08.04-.13.03-.16,0-.03-.03-.07-.07-.14-.04-.06-.07-.11-.08-.15,0-.04,0-.09.02-.13.02-.04.04-.07.03-.09-.03-.14-.02-.3.02-.46.04-.16.06-.25.05-.28-.01-.06,0-.1,0-.11.04-.03.08-.05.12-.08.04-.13.06-.2.07-.2.08-.02.16-.07.24-.16.08-.09.15-.14.2-.15.02,0,.04,0,.08.01.03.01.05.02.07.01.12-.08.21-.12.27-.13.04,0,.09-.03.16-.05.07-.03.12-.05.16-.05.02,0,.05,0,.09.02s.08.02.1.02c.11-.02.2-.02.27,0,.07.02.14.03.21.03.09.08.14.13.14.13.06,0,.1.02.12.02.02,0,.1.08.25.24.15.17.23.28.23.32.01.08.04.13.08.17.04.03.06.06.06.08s0,.05-.03.08c-.02.03-.03.06-.03.08,0,.02.02.04.05.07ZM20.74,1.67l-.02-.09-.1-.04s-.03-.04-.04-.08c-.02-.13-.03-.19-.02-.16-.05,0-.11-.02-.19-.07-.08-.05-.15-.07-.2-.06-.11.02-.23.02-.37.01-.15.06-.3.11-.46.17-.15.08-.23.21-.23.39-.09.04-.14.07-.13.09,0,.04.04.08.1.15.07.03.13.03.2.02.05,0,.12-.03.22-.07.1-.04.17-.06.21-.07.03,0,.07,0,.12,0,.05,0,.09,0,.12-.01.03-.01.07-.01.13,0,.05.01.09.01.11.01.02,0,.06-.02.12-.06.06-.03.11-.05.16-.06.11-.02.2-.05.26-.07Z"/>
        <path class="uuid-ce7c455e-e3f4-42e1-8070-b5403b0cac92" d="M25.34.7c.03.06.04.1.05.11,0,0,0,.04-.03.1.07,0,.1.04.11.08v.02s-.09.02-.09.02c-.08.09-.17.15-.28.17-.06.01-.11,0-.15-.06-.04-.06-.08-.11-.12-.16l.02-.06s-.02-.06-.06-.05l-.04.02c-.06-.12-.13-.19-.2-.2-.1-.02-.15-.03-.16-.03-.1.06-.19.1-.25.11v.02c0,.06-.04.11-.15.16-.11.05-.15.1-.14.17,0,0,.01.02.03.03.02,0,.03.02.03.03,0,.02-.04.05-.13.09v.03s0,.04.03.05c-.02.06-.05.1-.08.13l.07.12s0,.06-.02.11c-.02.05-.02.09-.02.13,0,0,.02.07.07.2.01.04.02.09.01.15,0,.07,0,.12,0,.14,0,.01.01.04.03.07.01.03.02.07.02.1.05.06.07.1.08.11,0,.01,0,.03-.03.05-.02.02-.03.05-.03.07,0-.02,0,0,.03.08.01.04,0,.06-.01.06-.02,0-.04,0-.08,0v.11s-.12.04-.12.04c-.02,0-.08,0-.18-.02-.09-.02-.14-.04-.15-.07,0-.03-.02-.07-.03-.14-.02-.06-.03-.11-.03-.14,0-.02,0-.04,0-.07,0-.02.01-.04,0-.06,0-.02-.02-.04-.05-.07s-.04-.05-.05-.07c0,0,0-.03.02-.06.02-.03.02-.05.02-.07,0-.02-.02-.05-.04-.12,0-.02,0-.08,0-.17l-.08-.1s-.01-.04-.02-.07c-.01-.03-.02-.06-.02-.08,0-.03,0-.07,0-.12,0-.05,0-.09,0-.11,0-.02-.02-.04-.04-.07-.02-.03-.04-.05-.04-.07,0-.02,0-.04.01-.05-.02-.04-.04-.08-.04-.11,0-.04-.01-.12-.01-.23,0-.11,0-.18,0-.22,0-.02-.02-.04-.05-.05l-.04-.07c-.04-.2-.03-.33.03-.36l-.05-.11s.05-.04.06-.1h.02s.05,0,.08,0c.04.01.06.02.08.01,0,0,.03,0,.09-.03.04-.01.08-.02.11-.01s.05.02.05.07c0,.02,0,.04,0,.08,0,.03-.01.05,0,.07,0,.01.02.03.05.05.03.03.05.05.05.08.02.12.03.17.02.16h.02s.06-.03.08-.07h.11c.06-.12.12-.19.2-.2.11-.02.18-.04.19-.05l.04-.08h.02s.29-.05.29-.05c.03,0,.07,0,.12.01s.08.02.09.02c.01,0,.02-.01.04-.02.01-.02.03-.02.04-.03.01.05.09.12.23.2.16.09.27.18.32.28.01.06.03.12.06.18Z"/>
      </g>
      <g>
        <path class="uuid-ce7c455e-e3f4-42e1-8070-b5403b0cac92" d="M36.67,13.81c.52.57,1,1.1,1.46,1.64.11.13.19.33.19.51.06,1.68.1,3.37.17,5.05.02.48-.15.84-.51,1.05-.52.3-1.06.59-1.62.76-1.39.4-2.79.79-4.2,1.07-.88.18-1.79.13-2.68.26-1.74.25-3.47.56-5.21.83-1.21.19-2.42.39-3.64.53-1.33.15-2.66.3-4,.35-1.49.05-2.47-.25-3.72-1.04-.29-.18-.61-.35-.87-.57-.07-.06-.31-.37-.39-.39-1.07-.2-1.84-.91-2.61-1.62-.14-.12-.39-.09-.56-.2-.73-.45-1.45-.91-2.17-1.37-.04-.03-.06-.11-.1-.13-1.63-.7-1.37-2.28-1.57-3.62-.23-1.47-.36-2.96-.6-4.43-.23-1.34.29-2.32,1.58-2.55,1.78-.33,3.54-.65,5.33-.85,1.22-.14,2.42-.43,3.63-.63.77-.13,1.55-.22,2.32-.35.62-.11,1.23-.3,1.86-.36.92-.1,1.86-.1,2.79-.17,1.65-.12,3.29-.29,4.94-.38.7-.04,1.4.06,1.98.62.37.36.85.62,1.29.9,1.13.74,2.26,1.46,3.39,2.2.57.37,1.08.89,1.69,1.13.43.17.99.03,1.48-.05,2.27-.38,4.54-.78,6.8-1.21,1.49-.28,1.25-.11,1.54,1.14.16.69.02.84-.69.92-2.04.23-4.07.48-6.11.73-.36.04-.72.13-1.18.22ZM4.96,13.18c-.02.29-.05.41-.04.54.11,1.13.34,2.26.33,3.38,0,1.42.51,2.39,1.69,3.09,1.22.72,2.38,1.55,3.58,2.3,1.02.64,2.04,1.26,3.1,1.83.58.31,1.22.67,1.84.67,1.64.02,3.28-.11,4.91-.24,1.02-.08,2.03-.23,3.03-.41.88-.16,1.74-.45,2.62-.58,1.3-.19,2.62-.29,3.93-.42.76-.08,1.53-.08,2.27-.23,1.47-.3,2.92-.67,4.38-1.02.67-.16,1.12-.77,1.09-1.48-.04-1.22-.1-2.45-.16-3.67,0-.14-.05-.28-.07-.38-.56.19-1.06.42-1.59.51-1.15.21-2.31.33-3.46.53-.92.16-1.82.41-2.73.59-2.06.41-4.12.81-6.18,1.21-1.68.33-3.54.75-5.26.78-.72.1-1.46.19-2.17.04-1.29-.28-2.47-1.17-3.58-1.85-1.22-.74-2.39-1.55-3.5-2.46-.69-.56-1.49-.99-2.24-1.47-.18-.12-.37-.23-.55-.35-.39-.27-.78-.56-1.25-.9ZM29.18,17.52c.02-.06.04-.12.06-.19-.15-.11-.33-.34-.44-.31-.78.23-1.33-.26-1.86-.66-.76-.57-1.28-1.35-1.26-2.39,0-.15,0-.33-.07-.44-.41-.61-.79-1.24-1.28-1.77-.23-.25-.67-.42-1.02-.41-.65.01-1.3.19-1.95.28-.7.1-1.41.21-2.11.27-.74.07-1.5.04-2.24.12-1.02.11-2.03.32-3.04.44-1.85.21-3.21.57-5.06.78-.43.05-.85.2-1.26.36-.12.05-.44.12-.49.26-.02.06.13.24.23.27,1.32.4,1.97,1.36,3.1,2.07.36.23.66.55,1.03.76,1.13.65,2.3,1.23,3.41,1.93.62.39,1.19.65,1.94.56,1.33-.15,2.67-.17,4-.33.79-.09,1.57-.34,2.36-.49,1.99-.38,3.98-.75,5.96-1.13ZM33.74,12.42c.04-.07.07-.14.11-.22-.16-.18-.46-.38-.66-.49-.92-.55-1.68-1.1-2.61-1.63-.79-.46-1.68-.82-2.34-1.44-.75-.69-1.59-.75-2.44-.73-1.06.03-2.11.33-3.16.32-2.34-.02-4.62.45-6.92.81-1.48.23-2.95.55-4.44.73-2.02.25-4.13.46-6.04,1.17-.3.11-.6.38-.56.71.01.11.06.22.11.32.35.69,1.34,1.38,2.14,1.1.89-.31,1.66-.39,2.58-.58.77-.15,1.27-.22,2.04-.32,1.57-.2,3.07-.52,4.65-.7.96-.11,2.15-.21,3.11-.31,1.44-.15,2.86-.39,4.3-.54.27-.03.62.1.83.29.47.42.87.92,1.24,1.31.58-.08,1.11-.24,1.62-.21,1.36.08,2.72-.02,4.08-.09.12,0,.25-.01.37,0,.18.01.36.06.54.11.48.13.97.24,1.44.4ZM26.29,12.84c.05.46.14.78.11,1.07-.08.64.38,1.25.99,1.23,1.43-.05,2.86-.14,4.29-.17.68-.01,1.2-.21,1.62-.78.26-.37.6-.62,1.09-.67.8-.08,1.59-.28,2.39-.41,1.87-.29,3.74-.57,5.61-.83.48-.07.96-.07,1.46-.1-.05-.28-.09-.47-.13-.69-.18-.02-.37-.06-.54-.04-.95.11-1.89.2-2.83.36-2.07.35-4.12.75-6.19,1.09-.37.06-.78-.07-1.16-.13-.57-.09-1.14-.28-1.71-.29-1.03,0-2.05.07-3.08.14-.65.04-1.3.14-1.91.2ZM27.8,15.7c-.14.02-.27.04-.4.06.35.39.86.6,1.37.59.46-.01.82-.14,1.06.39.15.33.42.6.87.52,1.27-.22,2.55-.41,3.83-.62.88-.15,1.76-.32,2.63-.52.47-.11.5-.34.16-.71-.21-.22-.42-.43-.64-.63-.32-.29-.6-.57-.97-.79-.05-.03-.11-.06-.17-.08-.07-.02-.14,0-.21,0-.24.03-.48.07-.72.1-.24.03-.51.09-.65.29-.15.22-.39.36-.58.56-.05.05-.11.1-.16.16-.43.54-1,.72-1.66.71-1.21-.03-2.55-.19-3.76-.04Z"/>
        <path class="uuid-ce7c455e-e3f4-42e1-8070-b5403b0cac92" d="M15.11,23.44c-.12-.15.04-1.69.09-1.91.06-.26.23-.5.48-.55.07-.02.16,0,.2.06.02.03.02.07.02.11-.01.69.07,1.44-.13,2.11-.06.19-.27.33-.41.49-.11-.14-.22-.28-.24-.31Z"/>
        <path class="uuid-ce7c455e-e3f4-42e1-8070-b5403b0cac92" d="M27.14,9.06c.15.6.07,1.26.04,1.88,0,.14-.01.29-.07.41-.06.12-.18.21-.28.16-.13-.06-.16-.28-.16-.46,0-.5-.1-1.11-.06-1.59,0-.07.3-1.07.44-.69.04.11.07.21.09.31Z"/>
      </g>
    </g>
  </g>
</svg>