<svg width="43" height="43" viewBox="0 0 43 43" fill="none" xmlns="http://www.w3.org/2000/svg">
<path d="M13.9737 3.58325H29.0237C34.757 3.58325 39.4154 8.24159 39.4154 13.9749V29.0249C39.4154 31.781 38.3205 34.4241 36.3717 36.3729C34.4229 38.3218 31.7797 39.4166 29.0237 39.4166H13.9737C8.24036 39.4166 3.58203 34.7583 3.58203 29.0249V13.9749C3.58203 11.2189 4.67686 8.57572 6.62568 6.6269C8.5745 4.67809 11.2177 3.58325 13.9737 3.58325ZM13.6154 7.16659C11.9047 7.16659 10.2641 7.84614 9.05453 9.05575C7.84492 10.2654 7.16536 11.9059 7.16536 13.6166V29.3833C7.16536 32.9487 10.0499 35.8333 13.6154 35.8333H29.382C31.0927 35.8333 32.7333 35.1537 33.9429 33.9441C35.1525 32.7345 35.832 31.0939 35.832 29.3833V13.6166C35.832 10.0512 32.9474 7.16659 29.382 7.16659H13.6154ZM30.9049 9.85408C31.4989 9.85408 32.0686 10.09 32.4886 10.51C32.9086 10.93 33.1445 11.4997 33.1445 12.0937C33.1445 12.6876 32.9086 13.2573 32.4886 13.6773C32.0686 14.0973 31.4989 14.3333 30.9049 14.3333C30.311 14.3333 29.7413 14.0973 29.3213 13.6773C28.9013 13.2573 28.6654 12.6876 28.6654 12.0937C28.6654 11.4997 28.9013 10.93 29.3213 10.51C29.7413 10.09 30.311 9.85408 30.9049 9.85408ZM21.4987 12.5416C23.8746 12.5416 26.1532 13.4854 27.8332 15.1654C29.5132 16.8454 30.457 19.124 30.457 21.4999C30.457 23.8758 29.5132 26.1544 27.8332 27.8344C26.1532 29.5144 23.8746 30.4583 21.4987 30.4583C19.1228 30.4583 16.8442 29.5144 15.1642 27.8344C13.4842 26.1544 12.5404 23.8758 12.5404 21.4999C12.5404 19.124 13.4842 16.8454 15.1642 15.1654C16.8442 13.4854 19.1228 12.5416 21.4987 12.5416ZM21.4987 16.1249C20.0732 16.1249 18.706 16.6912 17.698 17.6992C16.69 18.7072 16.1237 20.0744 16.1237 21.4999C16.1237 22.9255 16.69 24.2926 17.698 25.3006C18.706 26.3086 20.0732 26.8749 21.4987 26.8749C22.9242 26.8749 24.2914 26.3086 25.2994 25.3006C26.3074 24.2926 26.8737 22.9255 26.8737 21.4999C26.8737 20.0744 26.3074 18.7072 25.2994 17.6992C24.2914 16.6912 22.9242 16.1249 21.4987 16.1249Z" fill="#616161"/>
</svg>
