<?xml version="1.0" encoding="UTF-8"?>
<svg id="uuid-41e6d1a5-cd0b-46cb-82d9-e2c0a6d16857" data-name="Layer 2" xmlns="http://www.w3.org/2000/svg" viewBox="0 0 47.06 34.56">
  <defs>
    <style>
      .uuid-815a0d23-10f0-4b5b-84f5-36c545c76408 {
        fill: #231916;
      }
    </style>
  </defs>
  <g id="uuid-b960ce5a-ded4-43e2-9347-bd4828fd4e39" data-name="design">
    <g>
      <g>
        <path class="uuid-815a0d23-10f0-4b5b-84f5-36c545c76408" d="M23.33,18.73s-.04-.04-.06-.06c-.07-.11-.04-.25.07-.32,1.69-1.06,3.62-2.27,5.76-2.64,1.6-.27,3.23-.07,4.81.13.56.07,1.14.14,1.71.19,3.81.34,7.65-.33,11.12-1.93.12-.05.25,0,.31.11.05.12,0,.25-.11.31-3.54,1.63-7.47,2.31-11.35,1.97-.58-.05-1.16-.12-1.73-.2-1.54-.2-3.14-.4-4.67-.14-2.05.35-3.93,1.53-5.59,2.57-.08.05-.18.05-.26,0Z"/>
        <g>
          <g>
            <path class="uuid-815a0d23-10f0-4b5b-84f5-36c545c76408" d="M22.08,21.03c-.1-.07-.12-.21-.06-.31.41-.63.79-1.34.51-1.92-.2-.42-.7-.61-1.11-.61-.41,0-.86.15-1.38.46-.11.07-.25.03-.32-.08-.07-.11-.03-.25.08-.32.59-.35,1.12-.53,1.62-.52.67,0,1.27.34,1.53.87.38.78-.06,1.64-.54,2.37-.07.11-.21.14-.32.07h-.01Z"/>
            <path class="uuid-815a0d23-10f0-4b5b-84f5-36c545c76408" d="M.64,32.12c-.38-.27-.62-.67-.64-1.08-.03-.48.27-.85.54-1.16.13-.15.25-.29.33-.44.34-.58.36-1.23.38-1.87,0-.33.02-.67.07-1,.62-3.71,3.07-7.11,6.4-8.87,3.52-1.86,7.56-1.91,11.39-.12.12.05.17.19.11.31-.05.12-.19.17-.31.11-3.69-1.72-7.59-1.68-10.98.11-3.2,1.7-5.56,4.97-6.16,8.54-.05.3-.06.61-.07.94-.02.69-.04,1.41-.44,2.09-.11.18-.25.35-.38.5-.24.29-.45.54-.43.84.02.34.28.67.66.86.38.19.83.23,1.25.26.13,0,.22.12.22.24,0,.13-.12.22-.24.22-.47-.03-.97-.08-1.43-.3-.1-.05-.19-.1-.28-.17Z"/>
            <path class="uuid-815a0d23-10f0-4b5b-84f5-36c545c76408" d="M4.04,32.78c-.07-.05-.11-.14-.09-.23.02-.13.14-.21.27-.18,1.83.33,3.79.62,5.75.46,2.83-.24,5.55-1.42,7.65-3.33,2.1-1.91,3.53-4.51,4.03-7.3.02-.13.14-.21.27-.19.12.02.21.14.19.27-.51,2.9-1.99,5.58-4.17,7.56-2.17,1.98-4.99,3.21-7.92,3.45-2.02.17-4.02-.12-5.87-.47-.03,0-.07-.02-.09-.04Z"/>
          </g>
          <g>
            <path class="uuid-815a0d23-10f0-4b5b-84f5-36c545c76408" d="M18.61,24.21c-.22-.07-.37-.32-.32-.55.05-.23.3-.39.53-.34.23.05.39.3.33.53-.06.22-.3.44-.54.36Z"/>
            <path class="uuid-815a0d23-10f0-4b5b-84f5-36c545c76408" d="M17.47,28.01c-.25-.08-.43-.37-.37-.63.06-.26.34-.45.6-.39s.45.35.38.6c-.06.25-.35.5-.62.41Z"/>
            <path class="uuid-815a0d23-10f0-4b5b-84f5-36c545c76408" d="M14.33,28.33c-.25-.08-.43-.37-.37-.63.06-.26.34-.45.6-.39s.45.35.38.6c-.06.25-.35.5-.62.41Z"/>
            <path class="uuid-815a0d23-10f0-4b5b-84f5-36c545c76408" d="M14.51,30.63c-.19-.06-.31-.27-.27-.46.04-.19.25-.33.45-.29.19.04.33.26.28.45-.05.19-.26.37-.46.31Z"/>
            <path class="uuid-815a0d23-10f0-4b5b-84f5-36c545c76408" d="M11.03,31.3c-.19-.06-.31-.27-.27-.46.04-.19.25-.33.44-.29.19.04.33.25.28.44-.05.19-.25.37-.45.3Z"/>
          </g>
        </g>
      </g>
      <g>
        <path class="uuid-815a0d23-10f0-4b5b-84f5-36c545c76408" d="M29.27,22.29c-.09-.07-.12-.19-.07-.29,1.17-2.2,3.44-5.01,7.57-5.88.12-.03.25.05.27.18.03.12-.05.25-.18.27-3.96.83-6.13,3.53-7.26,5.64-.06.11-.2.15-.31.1,0,0-.02-.01-.03-.02Z"/>
        <g>
          <path class="uuid-815a0d23-10f0-4b5b-84f5-36c545c76408" d="M21.9,34.52s-.03-.03-.05-.05c-.06-.08-.06-.19,0-.27.77-1.09.96-2.41,1.16-3.81.1-.67.2-1.37.36-2.03.76-2.99,3.04-5.47,5.95-6.49.08-.03.18-.01.24.06.06.06.08.16.05.24-.2.56-.11,1.35,0,2.19.06.5.12,1.02.13,1.53.02,1.94-.86,3.96-2.42,5.53-1.29,1.31-2.99,2.33-5.2,3.12-.07.03-.15.01-.21-.03ZM29.06,22.46c-2.54,1.04-4.57,3.36-5.25,6.01-.16.64-.26,1.32-.35,1.98-.17,1.17-.34,2.38-.88,3.43,1.85-.73,3.29-1.65,4.41-2.78,1.47-1.49,2.3-3.39,2.28-5.21,0-.49-.07-.99-.13-1.48-.09-.7-.17-1.38-.08-1.95Z"/>
          <path class="uuid-815a0d23-10f0-4b5b-84f5-36c545c76408" d="M22.03,34.4s-.04-.04-.06-.06c-.07-.11-.04-.25.06-.32,1.81-1.22,2.76-3.54,3.76-5.99.84-2.07,1.72-4.22,3.19-5.95.08-.1.23-.1.32-.03.1.08.11.23.03.32-1.42,1.67-2.28,3.78-3.11,5.82-1.03,2.52-2,4.91-3.93,6.2-.08.06-.19.05-.26,0Z"/>
        </g>
      </g>
      <g>
        <path class="uuid-815a0d23-10f0-4b5b-84f5-36c545c76408" d="M33.04,15.63c-.85-.61-1.42-1.4-1.95-2.12-.1-.13-.19-.26-.29-.39-.36-.48-.64-1-.9-1.5-.49-.92-.95-1.79-1.92-2.5-.1-.07-.13-.22-.05-.32s.22-.13.32-.05c1.06.77,1.57,1.73,2.06,2.66.27.51.52.99.86,1.44.1.13.19.26.29.39.78,1.06,1.59,2.16,3.18,2.7.12.04.18.17.14.29-.04.12-.17.18-.29.14-.56-.19-1.04-.45-1.45-.75Z"/>
        <g>
          <path class="uuid-815a0d23-10f0-4b5b-84f5-36c545c76408" d="M21.71,7.43c-1.48-1.08-2.5-2.64-2.77-4.3-.08-.48-.09-.97-.11-1.44-.02-.47-.03-.96-.11-1.43-.02-.09.02-.18.1-.23.08-.05.18-.05.25,0,.87.57,1.82,1.05,2.73,1.51,1.04.53,2.11,1.07,3.09,1.75,1.07.73,3.53,2.76,3.44,5.65,0,.12-.1.22-.23.22-2.36.01-4.25-.43-5.8-1.34-.21-.12-.41-.26-.6-.4ZM19.24.68c.03.33.04.67.05,1,.02.46.03.93.1,1.38.28,1.74,1.45,3.37,3.15,4.37,1.42.84,3.17,1.26,5.34,1.27-.04-1.78-1.23-3.64-3.24-5.03-.95-.66-2.01-1.2-3.04-1.71-.78-.4-1.59-.81-2.36-1.27Z"/>
          <path class="uuid-815a0d23-10f0-4b5b-84f5-36c545c76408" d="M27.87,8.96s-.03-.03-.05-.05c-1.08-1.41-2.62-2.44-4.1-3.44l-.56-.38c-1.61-1.1-3.39-2.5-4.33-4.6-.05-.12,0-.25.12-.3s.25,0,.3.12c.89,1.99,2.53,3.29,4.16,4.41l.56.38c1.52,1.02,3.08,2.07,4.21,3.55.08.1.06.25-.04.32-.08.06-.2.06-.28,0Z"/>
        </g>
      </g>
      <g>
        <path class="uuid-815a0d23-10f0-4b5b-84f5-36c545c76408" d="M26.55,12.43s-.07-.07-.09-.12c-.04-.12.04-.25.16-.29,1.41-.41,2.73-.43,3.91-.06.12.04.19.17.15.29-.04.12-.17.19-.29.15-1.1-.34-2.32-.32-3.65.06-.07.02-.14,0-.2-.03Z"/>
        <g>
          <path class="uuid-815a0d23-10f0-4b5b-84f5-36c545c76408" d="M16.41,13.31c-.06-.05-.1-.12-.09-.21,0-.08.06-.16.13-.19.52-.23,1.02-.55,1.5-.86.44-.28.9-.57,1.38-.81,2.4-1.17,5.41-.84,7.5.82.06.05.1.13.08.21-.01.08-.07.15-.14.18-.49.19-.96.59-1.41.99l-.17.14c-.59.51-1.39,1.14-2.31,1.54-.96.41-1.96.5-2.81.26-.53-.15-1.01-.42-1.5-.71-.73-.44-1.46-.9-2.16-1.37h0ZM26.24,12.2c-1.93-1.36-4.58-1.58-6.71-.55-.46.22-.9.51-1.33.78-.38.24-.78.5-1.19.71.59.39,1.2.77,1.81,1.13.47.28.91.53,1.38.66.75.21,1.64.12,2.5-.24.87-.37,1.63-.98,2.19-1.46l.16-.14c.38-.33.76-.66,1.18-.9Z"/>
          <path class="uuid-815a0d23-10f0-4b5b-84f5-36c545c76408" d="M16.51,13.26c-.07-.05-.1-.13-.09-.22.02-.13.13-.21.26-.2,1.22.16,2.53-.18,3.8-.51.28-.07.55-.14.82-.21,1.33-.32,2.7-.25,4.14-.18.3.02.61.03.92.04.13,0,.23.11.22.24,0,.13-.11.23-.24.22-.31-.01-.62-.03-.92-.04-1.41-.07-2.75-.14-4.02.17-.27.06-.54.13-.81.2-1.31.34-2.67.69-3.98.52-.04,0-.08-.02-.11-.04Z"/>
        </g>
      </g>
    </g>
  </g>
</svg>