<svg width="37" height="37" viewBox="0 0 37 37" fill="none" xmlns="http://www.w3.org/2000/svg">
<path d="M9.75948 12.3333H27.2404C27.685 12.3332 28.1243 12.4293 28.5283 12.6149C28.9322 12.8005 29.2913 13.0713 29.5808 13.4087C29.8703 13.7461 30.0834 14.1421 30.2055 14.5696C30.3276 14.997 30.3559 15.4459 30.2883 15.8853L28.3535 28.4529C28.1856 29.5451 27.6321 30.5411 26.7933 31.2605C25.9546 31.9799 24.886 32.3752 23.7809 32.3749H13.2174C12.1127 32.3749 11.0444 31.9794 10.206 31.26C9.36756 30.5406 8.81432 29.5448 8.6464 28.4529L6.71161 15.8853C6.64403 15.4459 6.67228 14.997 6.7944 14.5696C6.91653 14.1421 7.12965 13.7461 7.41915 13.4087C7.70865 13.0713 8.06769 12.8005 8.47164 12.6149C8.8756 12.4293 9.31492 12.3332 9.75948 12.3333Z" stroke="black" stroke-width="2" stroke-linecap="round" stroke-linejoin="round"/>
<path d="M13.875 16.9583V9.25C13.875 8.02337 14.3623 6.84699 15.2296 5.97963C16.097 5.11228 17.2734 4.625 18.5 4.625C19.7266 4.625 20.903 5.11228 21.7704 5.97963C22.6377 6.84699 23.125 8.02337 23.125 9.25V16.9583" stroke="black" stroke-width="2" stroke-linecap="round" stroke-linejoin="round"/>
</svg>
