<?xml version="1.0" encoding="UTF-8"?>
<svg id="uuid-0334af63-9abc-4fe7-a0c1-dc17178d4e7a" data-name="Layer 2" xmlns="http://www.w3.org/2000/svg" viewBox="0 0 51.22 28.41">
  <defs>
    <style>
      .uuid-775f791d-9d71-4bf0-9532-935863b8e08a {
        fill: #231916;
      }
    </style>
  </defs>
  <g id="uuid-9a866f96-eb73-4377-b490-48799aa5fa29" data-name="design">
    <g>
      <g>
        <path class="uuid-775f791d-9d71-4bf0-9532-935863b8e08a" d="M3.54,4.57s.05.06.05.08c0,.01-.01.06-.05.16.02.07.02.13,0,.17-.21.1-.35.15-.41.17-.04,0-.1.03-.17.05-.07.03-.13.05-.16.05-.02,0-.05,0-.09-.02-.04-.01-.07-.02-.09-.02-.03,0-.07.02-.12.04-.05.02-.1.04-.12.04-.04,0-.1,0-.18,0-.08,0-.14,0-.18,0-.04,0-.1.02-.17.02s-.13.01-.15.02c-.03,0-.07.02-.12.05-.03.01-.08,0-.16-.01-.02,0-.05.02-.08.05-.03.03-.06.05-.08.05-.01,0-.05,0-.12,0-.04,0-.08.01-.12.03l-.05.07s.04.06.1.09c-.02.03-.04.06-.05.09.03.13.14.24.34.34.2.1.36.14.5.11.02,0,.05-.02.09-.04.04-.03.06-.04.09-.04.27-.05.48-.11.63-.16.06-.07.09-.11.1-.11.03,0,.06,0,.09.03.04-.01.07-.06.08-.14.21-.11.36-.17.43-.19h.05s.07.11.14.19c.07.08.11.13.11.16,0,0-.03.05-.09.14s-.09.15-.1.19c-.08.02-.19.09-.33.22-.15.13-.24.19-.28.2-.02,0-.04,0-.07,0-.03,0-.06-.01-.07,0-.03,0-.06.03-.1.08-.04.05-.07.08-.1.08-.06.01-.13.03-.21.05-.08.01-.13.02-.15.03-.02,0-.04,0-.06-.01-.02-.01-.04-.01-.06-.01-.02,0-.05.02-.09.04s-.07.04-.09.04c-.09.02-.28-.02-.58-.1-.05.03-.16-.01-.33-.11-.17-.1-.26-.16-.27-.18-.02-.11-.08-.2-.19-.27-.1-.06-.16-.13-.17-.2-.02-.13-.08-.22-.18-.28.03-.09.04-.15.03-.19,0-.03-.04-.09-.09-.16-.05-.07-.08-.13-.09-.18-.01-.05,0-.1.03-.15.03-.05.04-.08.04-.1-.03-.17-.03-.35.02-.53.04-.18.07-.29.06-.32-.01-.07,0-.11.01-.12.05-.03.09-.06.14-.1.04-.15.07-.23.08-.23.1-.02.19-.08.28-.18.09-.1.17-.16.24-.17.02,0,.05,0,.09.01.04.01.06.02.08.01.15-.09.25-.14.31-.15.04,0,.11-.03.19-.06.08-.03.14-.05.18-.06.02,0,.06,0,.11.02.05.02.09.02.12.02.13-.02.23-.02.31,0s.16.04.25.03c.11.1.16.15.17.15.07.01.11.02.14.02.02,0,.12.1.29.28.17.2.26.33.27.38.02.09.05.15.09.19.04.04.07.07.07.09,0,.02,0,.05-.04.09-.03.04-.04.07-.04.09,0,.02.02.05.06.08ZM2.76,4.48l-.03-.1-.11-.05s-.04-.05-.04-.09c-.03-.16-.04-.22-.03-.19-.05,0-.13-.03-.22-.08s-.17-.08-.23-.07c-.13.03-.27.03-.43.01-.17.07-.35.13-.53.2-.18.09-.27.24-.26.45-.11.04-.16.08-.15.11,0,.04.05.1.12.17.08.03.15.04.23.03.06-.01.14-.04.25-.08.11-.04.19-.07.24-.08.03,0,.08,0,.14,0,.06,0,.11,0,.14-.01.03-.01.08-.02.15,0,.06.01.11.01.13.01.03,0,.07-.03.14-.07.07-.04.13-.06.18-.08.13-.02.23-.05.31-.08Z"/>
        <path class="uuid-775f791d-9d71-4bf0-9532-935863b8e08a" d="M9.31,5.45v.04s-.09.17-.09.17h-.04s-.04,0-.08,0-.07-.01-.09,0c-.03,0-.06.03-.09.07-.03.04-.06.06-.09.06-.05,0-.11-.02-.16-.03-.09.08-.14.13-.14.17.02.05.03.09.03.12.02.08,0,.17-.02.24s-.04.15-.03.21c.02.13.02.21-.03.23-.11.07-.17.1-.17.11-.02.02-.03.06-.03.11,0,.05-.05.1-.16.16l-.05.09h-.02s-.06.02-.1,0c-.04,0-.08-.01-.1,0h-.02s-.07.08-.07.08c-.06.01-.13.04-.2.08-.1-.03-.17-.05-.18-.04-.02,0-.04.01-.09.03-.04.02-.08.03-.1.03-.06-.04-.11-.08-.13-.11-.01,0-.04-.01-.09-.01-.05,0-.08-.01-.1-.04-.24-.29-.35-.42-.35-.39,0-.03,0-.08.02-.15.02-.07.02-.12.01-.16-.05-.24-.05-.37-.02-.4.1-.09.16-.16.18-.23.03-.08.04-.15.05-.19.03-.02.09-.08.19-.17.08-.08.14-.12.19-.13.1-.02.15-.03.14-.02.03-.01.06-.05.1-.11.1.02.17.03.19.03.08-.02.12-.08.09-.2-.02-.11-.07-.16-.16-.15-.04,0-.08.04-.11.09h-.03s-.07.01-.11,0c-.03,0-.08.03-.13.08-.05.05-.1.08-.13.09-.02,0-.05,0-.08,0-.03,0-.05-.01-.06-.01-.02,0-.07.02-.16.05-.08.02-.14.03-.18.03-.06,0-.11,0-.16-.03l-.03-.04s-.07,0-.15,0c-.08,0-.15-.01-.19-.06-.04-.04-.07-.08-.08-.12-.01-.03-.05-.05-.11-.04-.06,0-.11-.02-.16-.08,0-.02-.06-.07-.15-.16-.06-.07-.1-.13-.11-.17-.01-.08-.06-.17-.12-.28-.07-.11-.1-.15-.1-.14v-.04s.03-.06.03-.06c0-.02,0-.04-.01-.08-.01-.04-.02-.06-.02-.08,0-.02,0-.06.04-.1.03-.04.04-.08.04-.1-.03-.17-.02-.26.03-.27s.07-.04.06-.1c-.03-.18,0-.31.1-.4.1-.08.2-.16.3-.24.06-.07.1-.11.13-.11.09-.02.16-.04.2-.07.04-.03.08-.05.1-.06.08.04.14.05.18.05-.03,0,.02-.02.15-.06.02,0,.07,0,.13.03.08.04.2.05.37.02.08-.02.13-.06.14-.13l-.05-.21s.07-.04.08-.11c.01-.07.03-.11.07-.11.03,0,.07-.02.12-.03.05-.01.08-.03.1-.03.07-.01.13.01.19.07s.1.12.11.2c.01.08.02.15.02.22,0,.05.01.09.02.12.02.03.06.1.13.21-.02.03-.02.07-.02.1,0,.03.03.08.07.14.04.06.06.11.07.14,0,.04,0,.1,0,.19,0,.09,0,.15,0,.19l.13.67s.03.1.06.18c.03.08.05.14.06.18,0,.02,0,.04-.02.06-.02.03-.03.05-.02.07,0,.01.02.03.05.05s.05.04.05.06c0,.02,0,.05-.02.1-.02.04-.03.08-.02.1.03.13.18.19.45.18.03,0,.1.02.2.06.03,0,.05-.02.06-.04.03,0,.09,0,.15.04.07.04.11.07.11.1l.06.25ZM7.13,3.44c-.08-.03-.13-.07-.14-.11,0-.02,0-.04,0-.09,0-.03-.01-.05-.01-.08-.05.01-.12,0-.22-.01-.1-.01-.17-.02-.2-.01-.02,0-.04.02-.07.04-.03.02-.05.04-.07.04-.02,0-.06,0-.1-.02-.04-.02-.08-.03-.1-.02-.04,0-.13.08-.24.21-.11.13-.17.22-.16.28,0,.02.02.05.06.08s.05.06.06.08c0,.02,0,.05,0,.09s0,.07,0,.09l.14.08c.01.35.27.48.77.39.03,0,.07-.03.1-.06.03-.03.05-.05.07-.06.09-.02.17-.06.23-.12.08-.07.12-.16.1-.25,0-.01-.02-.04-.05-.08l.02-.18c-.03-.16-.09-.26-.17-.29ZM7.57,6.01c-.06.05-.14.07-.23.08v.1c-.06.03-.12.06-.16.07l-.02.09c.02.12.1.19.23.19.01,0,.12-.02.33-.04.02-.02.03-.03.03-.05-.02-.08.02-.14.09-.16-.11-.19-.2-.28-.27-.28Z"/>
        <path class="uuid-775f791d-9d71-4bf0-9532-935863b8e08a" d="M14.27,4.51v.04l-.09.17h-.04s-.04,0-.08,0c-.04-.01-.07-.01-.09,0-.03,0-.06.03-.09.07s-.06.06-.09.06c-.05,0-.11-.02-.16-.03-.09.08-.14.13-.14.17.02.05.03.09.03.12.02.08,0,.17-.02.24s-.04.14-.03.21c.03.13.02.21-.03.23-.11.07-.17.1-.17.11-.02.02-.03.06-.03.11,0,.05-.05.1-.16.16l-.05.09h-.02s-.06.02-.1,0c-.04,0-.08-.01-.1,0h-.02s-.07.08-.07.08c-.06.01-.13.04-.19.08-.11-.03-.17-.05-.18-.04s-.04.01-.08.03c-.04.02-.08.03-.1.03-.07-.04-.11-.08-.14-.11-.01,0-.04-.01-.09-.01-.05,0-.08-.01-.1-.04-.24-.29-.35-.42-.34-.39,0-.03,0-.08.01-.15.02-.07.02-.12.01-.16-.05-.24-.05-.38-.02-.4.1-.09.16-.16.18-.23.02-.09.04-.15.05-.19.03-.02.09-.08.19-.17.08-.08.14-.12.19-.13.1-.02.15-.03.14-.02.03-.01.06-.05.1-.11.1.02.17.03.19.03.08-.02.11-.08.09-.2-.02-.11-.07-.16-.16-.15-.04,0-.08.04-.11.09h-.03s-.07.01-.11,0c-.03,0-.08.03-.13.08-.05.05-.09.08-.13.09-.02,0-.05,0-.08,0-.03,0-.05-.01-.06-.01-.02,0-.08.02-.16.05-.08.02-.14.03-.18.03-.06,0-.11,0-.15-.03l-.04-.05s-.07,0-.15,0c-.08,0-.15-.02-.19-.06-.04-.05-.07-.08-.08-.12-.01-.03-.05-.05-.11-.04-.06,0-.11-.02-.16-.08,0-.02-.06-.07-.15-.16-.07-.07-.1-.13-.11-.17-.01-.08-.06-.17-.12-.28-.07-.11-.1-.16-.1-.14v-.04s.03-.06.03-.06c0-.02,0-.04-.01-.08-.01-.04-.02-.06-.03-.08,0-.02,0-.05.04-.1.03-.04.04-.08.04-.1-.03-.17-.02-.26.03-.27.05-.01.07-.04.06-.1-.03-.18,0-.31.1-.39.1-.08.2-.16.3-.24.06-.07.1-.11.13-.11.09-.02.16-.04.2-.07.04-.03.08-.05.1-.06.08.04.14.05.17.05-.03,0,.02-.02.15-.06.02,0,.07,0,.14.03.08.04.2.05.37.02.08-.02.13-.06.14-.13l-.05-.21s.07-.04.08-.11c0-.07.03-.11.07-.11.03,0,.07-.02.12-.03.05-.01.08-.02.1-.03.07-.01.13.01.19.07.06.06.1.13.11.2.02.08.02.15.03.22,0,.05.01.09.02.12.02.03.06.1.13.21-.02.03-.02.07-.02.1,0,.03.03.08.07.14.04.06.06.11.07.14,0,.04,0,.1,0,.19,0,.09,0,.15,0,.19l.13.67s.03.1.06.18c.03.08.05.14.06.18,0,.02,0,.04-.02.06-.02.03-.03.05-.02.07,0,.01.02.03.05.05.03.02.05.04.05.06,0,.02,0,.05-.02.1-.02.04-.03.08-.02.1.03.13.18.19.45.18.03,0,.1.02.2.06.03,0,.05-.02.06-.04.03,0,.08,0,.15.04.07.04.1.07.11.1l.06.25ZM12.09,2.5c-.08-.03-.13-.07-.13-.11,0-.02,0-.04,0-.09,0-.03-.01-.05-.01-.08-.05,0-.13,0-.22-.01-.1-.01-.17-.02-.2-.01-.02,0-.04.02-.07.04s-.05.04-.07.04c-.02,0-.06,0-.1-.02-.04-.02-.08-.03-.1-.02-.04,0-.13.08-.24.21-.11.13-.17.22-.16.28,0,.02.02.05.06.09.03.03.05.06.06.08,0,.02,0,.05,0,.09,0,.04,0,.07,0,.1l.14.08c.01.35.27.48.77.39.03,0,.07-.03.1-.06.03-.03.06-.05.07-.06.09-.02.17-.06.23-.12.08-.07.12-.16.1-.25,0-.01-.02-.04-.05-.08l.02-.18c-.03-.16-.09-.26-.17-.29ZM12.53,5.07c-.06.05-.14.07-.23.08v.1c-.06.03-.12.06-.16.07l-.02.09c.02.12.1.19.23.19.01,0,.12-.02.33-.05.02-.02.03-.03.03-.05-.02-.08.01-.14.09-.16-.11-.19-.2-.28-.27-.28Z"/>
        <path class="uuid-775f791d-9d71-4bf0-9532-935863b8e08a" d="M16.49,3.96s-.06,0-.11-.04c-.04-.03-.08-.05-.1-.06-.1.04-.24.03-.41-.04-.17-.07-.3-.16-.38-.26-.04-.07-.06-.12-.06-.15,0-.02-.03-.04-.07-.07-.03-.03-.05-.06-.06-.08,0-.03.03-.08.1-.16s.12-.12.15-.12c.09.02.14.03.15.03.02,0,.03-.01.05-.03.01-.02.03-.03.05-.03.12-.02.19.01.21.11.02.1.04.15.06.14.01,0,.03-.01.05-.03.02-.02.04-.02.05-.02l.02.08c.07,0,.17.02.29.06.1.03.2.03.29.01.06-.01.1-.03.11-.06.01-.03.02-.05.03-.05.33-.06.48-.14.46-.24-.01-.06,0-.15.03-.27l-.12-.31s-.05-.03-.12-.07c-.07-.04-.11-.06-.13-.06-.08.02-.29,0-.62-.05-.33-.05-.52-.1-.56-.14l-.13.04c-.06-.12-.18-.24-.34-.35-.11-.07-.2-.24-.25-.52,0-.05,0-.16.03-.34s.06-.27.1-.27c.03,0,.05,0,.08,0,.04-.03.09-.1.15-.24.05-.11.1-.18.15-.18.01,0,.03,0,.06.02.03.01.05.01.07.01.02,0,.03-.01.05-.03l.1-.07s.07,0,.12,0c.05,0,.09.01.11,0,.02,0,.04-.02.06-.05.03-.03.05-.05.08-.06.06-.01.16,0,.29.01.13.02.22.02.28.01-.02,0,.01,0,.11-.04.03-.01.06,0,.09.03.06.05.15.1.27.15s.21.09.25.14c.05.04.08.1.1.17,0,.02.02.09.05.21h-.13c-.04.06-.07.11-.07.14l-.25.08c-.06-.04-.1-.08-.12-.12-.1-.03-.18-.04-.24-.03l-.06-.06-.1-.04-.04-.04c-.07.04-.12.07-.13.07-.03,0-.06,0-.11-.02s-.08-.03-.11-.02c-.03,0-.06.03-.1.07-.04.04-.07.07-.1.07.03,0,0,0-.11,0-.04,0-.08.02-.09.05,0,.04,0,.09-.04.13-.04.04-.04.12-.02.23.32.27.51.41.58.43.02,0,.04-.01.07-.04.03-.02.05-.03.07-.03.07-.01.13-.01.18,0,.05.02.1.03.15.04l.15-.05c.06.01.12.03.18.04.04.02.07.06.1.12.15-.03.25-.01.28.05.04.07.08.09.12.08.02.06.04.13.06.2.01.02.07.06.17.13,0,.04.03.11.08.2.04.09.07.16.08.2.04.23,0,.39-.13.46-.02.08-.02.15-.02.18-.09.11-.13.17-.14.2-.08.05-.14.08-.18.09-.02,0-.05.03-.09.07-.03.05-.07.07-.1.08-.04,0-.08,0-.11,0-.13.08-.31.15-.52.19.05,0-.01,0-.2.02-.1.01-.15.03-.17.06h-.03Z"/>
      </g>
      <g>
        <path class="uuid-775f791d-9d71-4bf0-9532-935863b8e08a" d="M16.14,27.07c-.1,0-.19-.04-.26-.1-1.95-1.87-2.57-5.01-1.48-7.48.59-1.34,1.61-2.45,2.61-3.46,1.21-1.23,2.65-2.57,4.47-2.9.69-.12,1.29-.07,1.79.15.42.18.81.51,1.15.96,1,1.3,1.47,3.27,1.39,5.84,0,.1-.05.2-.13.27-.08.07-.18.1-.27.09-.19,0-.35-.18-.34-.38.07-2.4-.35-4.21-1.24-5.37-.27-.35-.56-.59-.86-.73-.37-.16-.82-.2-1.36-.1-1.61.29-2.95,1.54-4.07,2.69-.95.96-1.92,2.01-2.46,3.24h0c-.96,2.19-.41,4.98,1.32,6.64.15.14.15.38.01.53-.07.07-.17.11-.27.11ZM16.07,26.77h0,0ZM25.34,20.06h0s0,0,0,0Z"/>
        <path class="uuid-775f791d-9d71-4bf0-9532-935863b8e08a" d="M19.95,28.41c-1.15,0-2.56-.39-3.5-.97-.08-.05-.15-.13-.17-.23-.02-.1,0-.2.05-.28.1-.17.33-.23.51-.12.85.51,2.1.86,3.12.86h.14c1.06-.04,1.99-.4,2.64-1.03.32-.32.58-.7.78-1.04.8-1.31,1.41-3.22,1.54-4.87,0-.11.06-.2.15-.27.08-.06.17-.08.26-.07.2.02.34.2.33.4-.15,1.76-.79,3.8-1.65,5.2-.23.38-.52.81-.9,1.18-.78.76-1.89,1.2-3.13,1.24h-.16Z"/>
        <path class="uuid-775f791d-9d71-4bf0-9532-935863b8e08a" d="M13.55,26.08s-.05,0-.07,0c-2.65-.3-5.05-2.42-5.68-5.04-.35-1.43-.2-2.93-.03-4.34.22-1.71.55-3.65,1.8-5.02.47-.51.98-.83,1.51-.96.44-.11.94-.09,1.49.06,1.58.43,3.15,1.71,4.65,3.8.12.17.08.4-.08.52-.08.06-.18.08-.28.07-.1-.02-.18-.07-.24-.15-1.4-1.95-2.83-3.14-4.24-3.52-.42-.11-.8-.13-1.13-.06-.39.09-.77.34-1.14.74-1.1,1.2-1.4,2.94-1.61,4.61-.17,1.4-.31,2.76.01,4.07.56,2.33,2.7,4.21,5.07,4.48.1.01.19.06.25.14.06.08.09.18.08.28-.02.18-.18.33-.37.33ZM13.54,25.81h0,0Z"/>
      </g>
      <g>
        <path class="uuid-775f791d-9d71-4bf0-9532-935863b8e08a" d="M32.02,10.26h-.02c-.59-.03-1.19-.13-1.77-.28-.05-.01-.1-.04-.14-.07-1.76-1.56-2.04-4.6-.59-6.51.36-.47.77-.82,1.22-1.05.7-.35,1.52-.39,2.22-.39.75,0,1.62.05,2.43.37,1.13.44,1.99,1.34,2.74,2.13.09.09.12.22.08.34-.04.13-.14.24-.27.3-.16.07-.35.07-.52,0-.06-.02-.11-.05-.17-.08-.04-.02-.09-.05-.11-.05-.04.01-.12.15-.13.32v.16c-.02.29-.04.64-.3.91-.11.11-.28.13-.42.05-.2-.12-.44-.26-.65-.27-.1,0-.28.09-.28.17.01.17.03.33-.06.5-.17.29-.48.3-.65.3-.04,0-.1,0-.14,0,.02,0,.02.06.02.1,0,.1,0,.23-.04.36-.13.4-.57.61-1.17.56-.2-.02-.51-.05-.59.06-.03.04-.05.14-.07.23l-.29,1.56c-.03.16-.17.28-.33.28ZM30.48,9.35c.41.1.83.18,1.26.22l.24-1.27c.03-.15.07-.34.19-.51.31-.41.84-.36,1.19-.33.25.02.45-.03.47-.09,0-.03,0-.1.01-.16,0-.17,0-.43.22-.61.2-.18.43-.17.63-.17-.01-.05-.02-.09-.01-.13.01-.5.5-.83.95-.83h.02c.24,0,.46.08.65.18,0-.07.01-.15.02-.23v-.18c.03-.24.13-.58.38-.78.1-.08.22-.13.34-.15-.55-.54-1.17-1.06-1.89-1.34-.71-.28-1.51-.32-2.19-.33-.67,0-1.35.03-1.92.32-.36.18-.69.47-.98.85-1.21,1.59-.99,4.2.44,5.54Z"/>
        <path class="uuid-775f791d-9d71-4bf0-9532-935863b8e08a" d="M49.34,10.96s-.07,0-.1-.02c-.09-.03-.16-.09-.2-.17-.05,0-.11,0-.16,0-.09,0-.17,0-.25,0-.43-.03-.74-.36-.89-.91l-.51.19c-.13.06-.28.01-.38-.1-.09-.11-.11-.26-.04-.39.02-.04.03-.09.03-.14-.19.01-.4-.08-.51-.24-.05-.07-.09-.15-.12-.22-.02-.04-.04-.09-.05-.11,0,.01-.08,0-.15,0-.6,0-1.29-.04-1.91-.34-.6-.29-1.04-.79-1.19-1.35-.59.04-1.2-.23-1.59-.68-.1-.11-.11-.27-.03-.4l.52-.85c-.3-.15-.55-.34-.82-.55l-.7-.17c-.12-.03-.22-.13-.25-.25-.03-.12.01-.25.11-.34,1.91-1.67,4.24-2.81,6.73-3.3.71-.15,1.64-.25,2.38.22.46.29.76.75.97,1.12,1.53,2.72,1.28,6.36-.62,8.84-.06.09-.17.13-.27.13ZM49,10.09c.1,0,.19,0,.29.03,1.54-2.26,1.7-5.42.36-7.81-.17-.3-.41-.67-.74-.88-.54-.34-1.29-.25-1.89-.13-2.15.42-4.18,1.36-5.9,2.72l.11.03s.1.03.13.06h0c.37.3.63.52,1.04.64.1.03.18.11.22.2s.03.21-.03.3l-.59.96c.31.24.72.34,1.11.25.1-.03.2,0,.28.06.08.06.13.15.13.25.02.45.36.89.87,1.13.5.24,1.1.28,1.62.28.13,0,.32-.01.5.1.17.1.25.25.3.37.12-.06.27-.05.37.04.16.13.26.32.31.52l.38-.14c.1-.04.21-.03.3.03.09.05.15.15.16.25.04.33.15.72.34.73.06,0,.12,0,.18,0,.05,0,.1,0,.15,0Z"/>
        <path class="uuid-775f791d-9d71-4bf0-9532-935863b8e08a" d="M38.76,8.16c-.38,0-.78-.13-1.11-.38-.45-.34-.84-1.36-1.04-1.94-.06-.18.04-.37.21-.43.18-.06.37.04.43.21.26.79.59,1.45.8,1.61.31.23.71.31,1.02.19.2-.07.37-.21.56-.37.26-.21.55-.52.83-.82.3-.32.61-.65.91-.89.14-.11.36-.1.48.05.12.14.1.36-.05.48-.26.21-.55.53-.84.83-.3.32-.61.65-.9.89-.21.17-.45.36-.75.47-.17.06-.36.1-.54.1Z"/>
        <path class="uuid-775f791d-9d71-4bf0-9532-935863b8e08a" d="M40.08,27.36c-.56,0-1.11-.17-1.57-.34-.9-.33-1.77-.76-2.59-1.27-1.39-.86-2.17-1.79-2.39-2.84-.2-.96.11-1.94.42-2.78.11-.29.22-.59.33-.88.67-1.78,1.37-3.61,1.26-5.48-.09-1.58-1.63-4.05-2.95-5.28-.14-.13-.15-.34-.02-.48.13-.13.34-.14.48-.02,1.26,1.17,3.06,3.81,3.17,5.74.11,2.01-.61,3.91-1.3,5.75-.11.29-.22.59-.33.88-.29.79-.56,1.62-.39,2.41.18.86.85,1.64,2.08,2.4.78.48,1.61.89,2.47,1.21.45.17.92.32,1.42.3,1.58-.07,2.51-1.91,2.83-2.71.53-1.3.86-2.66.97-4.07.08-.98.04-1.98.01-2.96-.03-.86-.06-1.75-.01-2.62.09-1.85.7-4.34,2.12-5.76.13-.13.34-.13.48,0,.13.13.13.34,0,.48-1.28,1.29-1.83,3.59-1.92,5.32-.04.85-.01,1.72.01,2.57.03.99.06,2.01-.01,3.03-.11,1.47-.46,2.91-1.01,4.27-.38.91-1.46,3.04-3.43,3.13-.04,0-.08,0-.11,0Z"/>
        <path class="uuid-775f791d-9d71-4bf0-9532-935863b8e08a" d="M38.31,25.56c-.14,0-.16,0-.18,0-.48-.04-.98-.11-1.4-.38-.2-.13-.39-.3-.57-.53-.57-.68-.89-1.55-.92-2.44-.03-.89.25-1.77.78-2.49.34-.47.77-.83,1.24-1.04.49-.23,1.02-.3,1.51-.35.45-.04.93-.07,1.4.05.38.1.76.3,1.12.6,1.26,1.03,1.83,2.85,1.37,4.41-.1.35-.23.63-.4.85-.25.34-.63.62-1.15.86-.91.41-2.32.45-2.8.45ZM38.18,24.88c.13,0,1.74.03,2.65-.39.41-.19.7-.4.89-.65.12-.16.22-.37.29-.64.38-1.31-.09-2.84-1.15-3.7-.29-.24-.58-.4-.87-.47-.34-.09-.71-.08-1.16-.03-.44.04-.9.11-1.29.29-.36.17-.7.46-.98.83-.44.6-.67,1.33-.65,2.07.02.74.29,1.46.76,2.03.14.17.28.3.41.38.29.18.64.24,1.09.28Z"/>
      </g>
    </g>
  </g>
</svg>