<svg width="31" height="31" viewBox="0 0 31 31" fill="none" xmlns="http://www.w3.org/2000/svg">
<path d="M15.4182 10.7917C14.1916 10.7917 13.0152 11.2789 12.1478 12.1463C11.2805 13.0137 10.7932 14.19 10.7932 15.4167C10.7932 16.6433 11.2805 17.8197 12.1478 18.687C13.0152 19.5544 14.1916 20.0417 15.4182 20.0417C16.6448 20.0417 17.8212 19.5544 18.6886 18.687C19.5559 17.8197 20.0432 16.6433 20.0432 15.4167C20.0432 14.19 19.5559 13.0137 18.6886 12.1463C17.8212 11.2789 16.6448 10.7917 15.4182 10.7917ZM15.4182 7.70833C17.4626 7.70833 19.4232 8.52046 20.8688 9.96605C22.3144 11.4116 23.1265 13.3723 23.1265 15.4167C23.1265 17.461 22.3144 19.4217 20.8688 20.8673C19.4232 22.3129 17.4626 23.125 15.4182 23.125C13.3738 23.125 11.4132 22.3129 9.9676 20.8673C8.522 19.4217 7.70988 17.461 7.70988 15.4167C7.70988 13.3723 8.522 11.4116 9.9676 9.96605C11.4132 8.52046 13.3738 7.70833 15.4182 7.70833ZM25.439 7.32292C25.439 7.83401 25.236 8.32417 24.8746 8.68557C24.5132 9.04697 24.0231 9.25 23.512 9.25C23.0009 9.25 22.5107 9.04697 22.1493 8.68557C21.7879 8.32417 21.5849 7.83401 21.5849 7.32292C21.5849 6.81182 21.7879 6.32166 22.1493 5.96026C22.5107 5.59887 23.0009 5.39583 23.512 5.39583C24.0231 5.39583 24.5132 5.59887 24.8746 5.96026C25.236 6.32166 25.439 6.81182 25.439 7.32292ZM15.4182 3.08333C11.6041 3.08333 10.9813 3.09413 9.20683 3.17275C7.99817 3.22979 7.18725 3.39167 6.43492 3.68458C5.80566 3.9164 5.23661 4.28681 4.76992 4.76837C4.2878 5.23491 3.91685 5.80397 3.68458 6.43337C3.39167 7.18879 3.22979 7.99817 3.17429 9.20529C3.09413 10.9073 3.08333 11.5024 3.08333 15.4167C3.08333 19.2323 3.09413 19.8536 3.17275 21.628C3.22979 22.8352 3.39167 23.6476 3.68304 24.3984C3.94513 25.069 4.25346 25.5516 4.76529 26.0634C5.28483 26.5814 5.76738 26.8913 6.43029 27.1472C7.19188 27.4417 8.00279 27.6051 9.20529 27.6606C10.9073 27.7408 11.5024 27.75 15.4167 27.75C19.2323 27.75 19.8536 27.7392 21.628 27.6606C22.8336 27.6035 23.6445 27.4417 24.3984 27.1503C25.0277 26.9185 25.5967 26.5481 26.0634 26.0665C26.583 25.5485 26.8928 25.066 27.1488 24.4015C27.4417 23.643 27.6051 22.8321 27.6606 21.6265C27.7408 19.926 27.75 19.3294 27.75 15.4167C27.75 11.6026 27.7392 10.9798 27.6606 9.20529C27.6035 7.99971 27.4401 7.18571 27.1488 6.43337C26.9169 5.80412 26.5465 5.23507 26.065 4.76837C25.5984 4.28625 25.0294 3.91531 24.4 3.68304C23.6445 3.39013 22.8336 3.22825 21.628 3.17275C19.9276 3.09258 19.3325 3.08333 15.4167 3.08333M15.4167 0C19.6054 0 20.128 0.0154166 21.773 0.0924999C23.4133 0.169583 24.5325 0.427042 25.5146 0.809375C26.5321 1.20096 27.3893 1.73129 28.2464 2.58692C29.0307 3.35734 29.6373 4.28964 30.024 5.31875C30.4048 6.30079 30.6638 7.42004 30.7408 9.06192C30.8133 10.7053 30.8333 11.228 30.8333 15.4167C30.8333 19.6054 30.8179 20.128 30.7408 21.7714C30.6638 23.4148 30.4048 24.531 30.024 25.5146C29.6373 26.5437 29.0307 27.476 28.2464 28.2464C27.476 29.0307 26.5437 29.6373 25.5146 30.024C24.5325 30.4048 23.4133 30.6638 21.773 30.7408C20.128 30.8133 19.6054 30.8333 15.4167 30.8333C11.228 30.8333 10.7053 30.8179 9.06038 30.7408C7.42004 30.6638 6.30233 30.4048 5.31875 30.024C4.28964 29.6373 3.35734 29.0307 2.58692 28.2464C1.80268 27.476 1.19605 26.5437 0.809375 25.5146C0.427042 24.5325 0.169583 23.4133 0.0924999 21.7714C0.0184999 20.128 0 19.6054 0 15.4167C0 11.228 0.0154166 10.7053 0.0924999 9.06192C0.169583 7.4185 0.427042 6.30233 0.809375 5.31875C1.19605 4.28964 1.80268 3.35734 2.58692 2.58692C3.35734 1.80268 4.28964 1.19605 5.31875 0.809375C6.30079 0.427042 7.4185 0.169583 9.06038 0.0924999C10.7069 0.0200416 11.2295 0 15.4182 0" fill="black"/>
</svg>
