<?xml version="1.0" encoding="UTF-8"?>
<svg id="uuid-84d6506e-e8c6-4e0e-8134-8360475529df" data-name="Layer 2" xmlns="http://www.w3.org/2000/svg" viewBox="0 0 29.5 34.15">
  <defs>
    <style>
      .uuid-5f14eb21-5097-4f41-a90c-298fda1ff52c {
        fill: #231916;
      }
    </style>
  </defs>
  <g id="uuid-9dfb476f-5066-4968-a194-0464d04f7bf2" data-name="design">
    <g>
      <path class="uuid-5f14eb21-5097-4f41-a90c-298fda1ff52c" d="M.11,26.07c.03-.63.07-1.37.1-2.11.02-.47,0-.94.05-1.4.05-.51.18-1.01.24-1.52.1-.87.17-1.75.27-2.63.04-.36.11-.73.18-1.09.06-.33.14-.66.21-.99.18-.88.36-1.75.54-2.63.03-.14.03-.29.05-.43.17-1.08.35-2.16.51-3.23.06-.38.08-.76.12-1.14.08-.81.16-1.62.24-2.43.03-.32.13-.7.11-1.01-.03-.34-.27-.19-.45-.38-.06-.06-.07-.16-.07-.25-.02-.78.14-1.57.2-2.35.04-.54.04-1.09.08-1.64.04-.59.22-.71.79-.68.79.04,1.58,0,2.36.07,1.57.14,3.12-.25,4.68-.15.61.04,1.22.16,1.83.14,1.14-.03,2.28-.16,3.42-.2.77-.03,1.54-.01,2.3.02,1.09.05,2.17.15,3.25.22.86.06,1.72.12,2.58.15.4.02.63.21.7.58.21,1.14.4,2.28.6,3.42.12.69.23,1.38.39,2.06.29,1.26.55,2.54.92,3.78.67,2.29,1.01,4.66,1.59,6.97.36,1.42.45,2.9.69,4.35.11.65.31,1.27.43,1.92.12.69.29,1.35.36,2.05.08.85.1,1.71.13,2.56,0,.14,0,.29-.04.42-.05.14-.16.26-.26.38-.37.49-.66.93-1.18,1.28-.43.29-.8.66-1.23.95-.29.19-.64.27-.95.44-.92.51-1.83,1.04-2.65,1.71-.69.56-1.49.86-2.43.78-.56-.05-1.15.15-1.71.09-1.08-.11-2.16-.35-3.24-.5-.84-.11-1.69-.18-2.53-.25-.87-.08-1.74-.16-2.61-.22-.84-.07-1.68-.09-2.51-.19-1.1-.14-2.19-.37-3.3-.52-.62-.08-1.24-.09-1.87-.11-.77-.03-1.59.06-2.18-.54-.25-.25-.43-.65-.48-1-.16-1.19-.25-2.39-.34-3.59-.02-.33.06-.68.1-1.13ZM22.8,5.94c-.48.14-1.01.03-1.5-.02-.61-.06-1.21-.12-1.82-.17-.46-.04-.93,0-1.4-.01-1.22-.04-2.44-.1-3.66-.15-.56-.03-1.13-.06-1.67-.09-1.58-.09-2.47-.15-3.7-.19-.81-.03-1.62-.1-2.43-.12-.38-.01-.76.06-1.14.08-.38.02-.77,0-1.15.02-.23.01-.47.11-.7.09-.36-.04-.45.11-.47.43-.06.76-.12,1.53-.22,2.29-.19,1.44-.41,2.87-.61,4.3-.1.71-.19,1.42-.31,2.12-.14.85-.37,1.67-.53,2.52-.16.83-.22,1.68-.3,2.52-.07.74-.18,1.46-.26,2.2-.12,1.12-.13,2.26-.25,3.38-.23,2.01-.09,3.98.42,5.93.03.13.11.31.21.36.38.17.77.36,1.17.4.61.07,1.23-.04,1.83.04,1.29.17,2.58.44,3.87.62,1.18.16,2.36.26,3.54.36.7.06,1.41.02,2.11.08,1.24.12,2.48.28,3.72.42.11.01.21.06.32.08.64.16,1.23.31,1.89.22.66-.09,1.35-.05,2.02-.15.05,0,.11-.02.15-.05.07-.05.09-.15.1-.24.11-.93.08-1.89.12-2.82.04-1.01.07-2.01.11-3.02.02-.56.05-1.12.06-1.68.03-1.55.05-3.11.07-4.66,0-.48.03-.96.04-1.44.02-.59.03-1.19.09-1.78.04-.46.07-1.21.07-1.65.02-1.3.07-1.78.15-2.8.02-.24.02-.48.02-.72,0-.99.04-1.57.05-2.56,0-.27.09-.94.09-1.2,0-.99-.08-2.03.11-3-.07.04-.15.07-.22.09ZM24.2,2.35c-.12.21-.21.53-.23.63-.38,1.59-.56,3.2-.61,4.83-.05,1.59-.3,3.16-.17,4.76.07.85-.09,1.71-.13,2.57-.06,1.27-.12,2.54-.18,3.8,0,.08-.02.16-.02.24,0,1.26.02,2.52,0,3.78,0,.71-.08,1.42-.09,2.13-.02,1.04,0,2.08-.03,3.12-.02.87-.1,1.74-.13,2.61-.01.39.02.79,0,1.18-.02.34-.11.7-.17,1.04,0,.05-.02.12.02.16.05.06.16.04.21-.02.29-.31.63-.65.99-.9.57-.39,1.18-.73,1.77-1.09.18-.1.36-.22.55-.27,1.12-.31,2.04-1.21,2.79-2.06.1-.11.19-.22.25-.36.08-.19.06-.41.04-.61-.07-.71-.14-1.42-.23-2.13-.08-.61-.23-1.23-.28-1.83-.04-.5-.25-.99-.33-1.49-.25-1.59-.4-3.19-.74-4.76-.51-2.29-.82-4.63-1.55-6.88-.47-1.46-.76-2.98-1.08-4.48-.25-1.18-.41-2.62-.65-3.96ZM3.07.77c-.08,0-.34,3.41-.3,3.75,0,.05.01.11.05.14.03.03.08.04.13.05.54.08,1.06.02,1.59,0,1.03-.06,2.06-.06,3.09-.04.86.02,1.72.04,2.57.15.67.09,1.35.21,2.03.2.7-.01,1.42.04,2.13.05.95,0,1.89-.03,2.84.01,1.6.06,3.19.17,4.78.26.2.01.43.07.61,0,.19-.07.44-.24.49-.42.22-.83.33-1.69.57-2.51.14-.46.37-.88.15-1.4-.45-.04-.91-.11-1.38-.13-1.3-.07-2.61-.07-3.89-.23-.53-.06-1.02-.1-1.55-.04-.55.06-1.12-.07-1.68,0-1.66.18-3.31.17-4.98.06-.91-.06-1.82.02-2.73.05-.64.02-1.28.08-1.92.09-.88,0-1.77-.02-2.6-.03Z"/>
      <g>
        <path class="uuid-5f14eb21-5097-4f41-a90c-298fda1ff52c" d="M11.68,23.84c-.06-.04-.08-.11,0-.22.09-.12.22-.07.34-.09.13-.02.29-.1.41-.16.2-.11.4-.4.48-.61.05-.12.06-.27,0-.38-.13-.02-.26-.04-.39,0-.12.03-.22.11-.31.19-.27.22-.42.49-.48.83-.06.35-.4.6-.76.6-.47.01-.82-.24-.99-.69-.04-.11-.06-.22-.07-.34-.03-.23-.04-.46-.04-.69,0-.25.41-.24.58-.21-.09-.32-.17-.62-.17-.96,0-.36.13-.78.56-.76.04,0,.09,0,.09-.04,0-.02,0-.03-.02-.04-.07-.11-.1-.24-.13-.37-.03-.16-.07-.33-.06-.5.02-.42.37-.78.71-.99.03-.02.06-.04.08-.07.02-.04.02-.09.02-.13,0-.32.13-.6.28-.88.19-.35.47-.6.9-.42.31.12.42.37.42.69,0,.27-.02.53-.06.79,0,.03,0,.07.02.08.02,0,.03,0,.05,0,.13-.03.24-.04.35.05.14.12.15.22.15.39,0,.36,0,.75-.18,1.06-.03.05-.06.1-.05.15.03.12.17.17.21.27.04.1.03.24.03.34,0,.21-.03.42-.11.61-.06.17-.3.29-.33.45-.04.19.14.37.09.59-.09.41-.16.86-.48,1.17-.16.15-.35.25-.56.3-.09.02-.47.07-.6-.01ZM11.07,20.9s-.04,0-.06,0c-.33-.04-.29.43-.26.63.09.5.46.8.9,1.02.2-.3.26-.59.09-.91-.14-.27-.36-.65-.68-.73ZM11.76,20.61s.05,0,.06,0c.29-.06.13-.69.11-.88-.03-.26-.02-.45-.13-.68-.2-.42-.5.16-.56.34-.07.22-.11.51-.02.7.06.13.35.46.54.51ZM11.03,23.64c.09-.03.26-.1.29-.12.08-.07.09-.2.05-.3-.11-.22-.41-.45-.59-.62-.09-.08-.2-.17-.32-.17-.04,0-.07,0-.1.03-.04.03-.06.08-.06.13-.08.39.2,1.1.69,1.06,0,0,.02,0,.04,0ZM12.81,20.53c-.18.12-.4.31-.52.46-.15.18-.15.44-.17.67,0,.04,0,.08.02.11.17.19.65-.07.77-.2.2-.21.29-.51.3-.79,0-.11-.02-.24-.12-.3-.07-.04-.16-.02-.23.02-.02.01-.04.02-.05.03ZM12.44,17.28s-.03,0-.04.02c-.54.3-.47.88-.38,1.39.01.08.03.16.08.23.05.06.13.11.21.08.05-.02.08-.06.11-.1.26-.37.27-.7.24-1.14-.01-.17-.04-.35-.17-.45-.01,0-.02-.01-.03-.02,0,0,0,0-.01,0ZM13.19,18.93s-.07-.08-.13-.09c-.07,0-.13.03-.18.08-.36.29-.51.64-.59,1.08,0,.04-.01.08,0,.11.01.02.03.04.05.05.09.05.2.05.3.01.37-.12.57-.67.58-1.03,0-.06,0-.13-.03-.19,0,0,0-.02-.02-.03Z"/>
        <path class="uuid-5f14eb21-5097-4f41-a90c-298fda1ff52c" d="M9.17,25.88c.07,0,.13,0,.2.01.27.03.62.09.83.27.15.12.23.34.34.5.37.52.59,1.11.84,1.69.1.23-.15.45-.41.32-.37-.17-.69-.42-1.04-.63-.46-.28-.94-.54-1.39-.83-.21-.13-1-.54-.87-.84.05-.13.21-.15.32-.21.23-.13.33-.23.61-.26.19-.02.39-.03.58-.03ZM10.55,27.8c-.43-1.08-.93-1.54-1.71-1.57-.14,0-.28.1-.42.16.11.13.2.29.34.37.24.15.52.23.77.37.33.19.63.42,1.01.67Z"/>
        <path class="uuid-5f14eb21-5097-4f41-a90c-298fda1ff52c" d="M12.48,27.17c0-.24,0-.48.07-.71.09-.34.21-.68.32-1.02.22-.67.76-1,1.38-1.21.68-.22.57.57.48.97-.14.58-.43,1.11-.74,1.61-.29.47-.65,1.24-1.19,1.46-.32.13-.31-.57-.31-.8,0-.1,0-.21,0-.31ZM13.07,27.52s.04-.03.06-.06c.3-.44.57-.84.68-1.25.14-.42.21-.53.35-.96.07-.2.13-.44.02-.62-.25.05-.4.31-.56.49-.17.19-.3.42-.4.65-.14.31-.23.65-.26.99-.03.29-.12.56-.13.85,0,.01,0,.03.01.04,0,0,.02,0,.03,0,.08-.02.14-.07.2-.13Z"/>
        <path class="uuid-5f14eb21-5097-4f41-a90c-298fda1ff52c" d="M11.83,28.8c-.08-.08-.14-.23-.16-.3-.12-.54-.25-1.08-.32-1.62-.12-.84-.15-1.67-.06-2.51.03-.24,0-.59.2-.75.47-.35.27.85.26,1.04-.03.43-.09.87-.06,1.31.05.86.25,1.66.4,2.5.01.08.03.16,0,.24-.02.08-.09.15-.17.14-.03,0-.06-.02-.09-.05Z"/>
      </g>
      <g>
        <path class="uuid-5f14eb21-5097-4f41-a90c-298fda1ff52c" d="M6.28,12.49s0,0,0-.01c-.2-.03-.41-.03-.61-.02-.07,0-.15,0-.21-.03-.07-.05-.08-.15-.08-.24,0-.05,0-.1.02-.13.04-.07.14-.08.22-.08.21,0,.43,0,.64,0,.01-.18.05-.35.02-.53-.07-.54.16-.99.62-1.21.28-.14.84.02.97.29.03.07.03.22-.01.24-.09.06-.23.1-.33.08-.64-.17-.64-.18-.72.51-.02.17-.03.33-.06.62.42-.08.8-.09,1.23-.1.02,0,.04,0,.05,0,.02,0,.04.02.05.04.06.08.08.2.06.3,0,.02-.01.04-.03.05-.04.02-.15,0-.2-.01-.1,0-.2,0-.3.01-.26.02-.49.07-.74.13-.02,0-.05.01-.07.02-.14.09-.1.51-.1.64,0,.28.02.55.03.83.02.37.2.82.06,1.18-.02.06-.06.13-.13.15-.15.05-.16-.08-.19-.18-.11-.4-.16-.79-.17-1.2-.01-.44.01-.89-.04-1.32Z"/>
        <path class="uuid-5f14eb21-5097-4f41-a90c-298fda1ff52c" d="M16.02,14.33c-.43.4-.65.97-1.26.68-.74-.35-.91-1.14-.76-1.89.01-.06.03-.12.07-.16.08-.08.2-.06.31-.05.03,0,.06.01.09.03.02.01.02.04.03.06.06.15.06.32.05.48,0,.2-.03.44.02.64.04.19.22.31.36.42.05.04.23.03.26-.01.28-.37.67-.73.73-1.21,0-.08.01-.15.04-.23.02-.07.07-.14.14-.17.11-.04.23.03.29.13.06.1.07.22.08.34,0,.37.03.73.06,1.09.02.19.21.66-.06.72-.06.01-.13.02-.19.01-.26-.04-.24-.68-.28-.88Z"/>
        <path class="uuid-5f14eb21-5097-4f41-a90c-298fda1ff52c" d="M18.09,12.74s.01.03.01.04c.04.34-.01.7,0,1.04,0-.15.4-.46.51-.52.3-.17.55-.28.92-.25.11.01.23.05.31.13.05.05.09.1.12.17.05.08.09.18.09.27,0,.1-.02.2-.1.26-.02.02-.04.03-.06.04-.05.02-.11-.01-.15-.05-.04-.04-.07-.09-.1-.13-.07-.09-.17-.14-.28-.18-.1-.04-.23-.01-.33.02-.08.03-.14.1-.2.15-.15.12-.29.24-.41.39-.16.2-.27.44-.29.69,0,.11,0,.24-.06.33-.06.09-.17.14-.27.12-.18-.03-.19-.15-.19-.29,0-.2,0-.4,0-.6,0-.42,0-.84,0-1.26,0-.1-.03-.28.05-.36.09-.09.29-.04.4-.04.02,0,.03,0,.04.01,0,0,0,0,0,0Z"/>
        <path class="uuid-5f14eb21-5097-4f41-a90c-298fda1ff52c" d="M12.24,12.76c.18.01.34.07.48.18.07.05.12.12.17.19.07.09.14.18.18.29.08.26.03.47-.04.73-.22.75-.26.83-.88.87-.33.02-.6-.16-.81-.4-.25-.29-.4-.68-.32-1.06.1-.5.7-.84,1.22-.8ZM12.78,13.9c.03-.15-.06-.32-.15-.43-.1-.1-.22-.17-.36-.19-.29-.04-.63.19-.73.47-.13.38.18.76.52.8.29.03.41-.13.54-.35.06-.1.15-.18.18-.28,0,0,0,0,0-.01Z"/>
        <path class="uuid-5f14eb21-5097-4f41-a90c-298fda1ff52c" d="M9.55,14.6c-.05-.37-.09-.74-.05-1.11.05-.44-.04-.92-.06-1.36-.02-.33-.04-.66-.05-.99,0-.2-.02-.58.13-.74.06-.07.16-.09.25-.07.01,0,.03,0,.04.02.01.01.02.03.02.05.05.32.02.66.03.98.01.36.02.71.03,1.07.02.7.03,1.4.05,2.1,0,.03,0,.06,0,.09-.01.11-.04.48-.26.36-.06-.03-.07-.1-.08-.16-.01-.09-.03-.17-.04-.26Z"/>
      </g>
    </g>
  </g>
</svg>