<svg width="46" height="46" viewBox="0 0 46 46" fill="none" xmlns="http://www.w3.org/2000/svg">
<path d="M11.2253 13.11C11.0063 12.9919 10.7605 12.9327 10.5118 12.9381C10.263 12.9435 10.02 13.0133 9.80634 13.1408C9.59271 13.2683 9.41582 13.4491 9.29296 13.6654C9.17011 13.8817 9.10551 14.1262 9.10547 14.375V32.5833C9.10547 32.9646 9.25692 33.3302 9.5265 33.5998C9.79609 33.8694 10.1617 34.0208 10.543 34.0208C10.9242 34.0208 11.2899 33.8694 11.5594 33.5998C11.829 33.3302 11.9805 32.9646 11.9805 32.5833V16.7823L22.319 22.3483C22.7445 22.5783 23.2581 22.5783 23.6836 22.3483L34.0221 16.7823V32.5833C34.0221 32.9646 34.1736 33.3302 34.4432 33.5998C34.7128 33.8694 35.0784 34.0208 35.4596 34.0208C35.8409 34.0208 36.2065 33.8694 36.4761 33.5998C36.7457 33.3302 36.8971 32.9646 36.8971 32.5833V14.375C36.8971 14.1262 36.8325 13.8817 36.7096 13.6654C36.5868 13.4491 36.4099 13.2683 36.1963 13.1408C35.9826 13.0133 35.7396 12.9435 35.4909 12.9381C35.2421 12.9327 34.9963 12.9919 34.7773 13.11L23.0013 19.4503L11.2253 13.11Z" fill="#616161"/>
<path fill-rule="evenodd" clip-rule="evenodd" d="M33.1792 7.13372C26.4077 6.52802 19.5957 6.52802 12.8242 7.13372L9.91469 7.39247C8.39916 7.5278 6.97349 8.17003 5.86792 9.21543C4.76236 10.2608 4.04144 11.6484 3.82161 13.154C2.86675 19.6832 2.86675 26.3166 3.82161 32.8458C4.04192 34.3513 4.76329 35.7387 5.8692 36.7837C6.97512 37.8288 8.40102 38.4706 9.91661 38.6054L12.8223 38.8661C19.5958 39.4717 26.4076 39.4717 33.1811 38.8661L36.0887 38.6054C37.6039 38.4702 39.0294 37.8282 40.1349 36.7832C41.2405 35.7382 41.9615 34.3511 42.1818 32.8458C43.1366 26.3166 43.1366 19.6832 42.1818 13.154C41.9619 11.6481 41.2407 10.2603 40.1347 9.21487C39.0288 8.16944 37.6026 7.52739 36.0868 7.39247L33.1792 7.13372ZM13.081 9.99722C19.6829 9.40559 26.3244 9.40559 32.9262 9.99722L35.8338 10.2579C36.7054 10.3353 37.5255 10.7043 38.1616 11.3053C38.7977 11.9062 39.2126 12.704 39.3394 13.5699C40.2539 19.8233 40.2539 26.1765 39.3394 32.4299C39.2126 33.2957 38.7977 34.0936 38.1616 34.6945C37.5255 35.2955 36.7054 35.6645 35.8338 35.7419L32.9262 36.0026C26.3252 36.5929 19.682 36.5929 13.081 36.0026L10.1734 35.7419C9.3018 35.6645 8.48171 35.2955 7.84562 34.6945C7.20954 34.0936 6.79461 33.2957 6.66786 32.4299C5.75333 26.1765 5.75333 19.8233 6.66786 13.5699C6.79461 12.704 7.20954 11.9062 7.84562 11.3053C8.48171 10.7043 9.3018 10.3353 10.1734 10.2579L13.081 9.99722Z" fill="#616161"/>
</svg>
