<?xml version="1.0" encoding="UTF-8"?>
<svg id="uuid-2e40212e-fceb-4a50-8309-23f23f2bbd0b" data-name="Layer 2" xmlns="http://www.w3.org/2000/svg" viewBox="0 0 26.98 30.57">
  <defs>
    <style>
      .uuid-050b02ad-0ac4-4cc8-aaca-c06f11562d98 {
        fill: #231916;
      }
    </style>
  </defs>
  <g id="uuid-f145c2a1-74fc-4a64-8a10-d3ae1cb5cf83" data-name="design">
    <g>
      <g>
        <path class="uuid-050b02ad-0ac4-4cc8-aaca-c06f11562d98" d="M7.81,22.39s-.05,0-.09-.03c-.04-.03-.07-.04-.08-.04-.08.04-.19.03-.33-.02-.14-.05-.24-.12-.31-.2-.03-.05-.05-.09-.06-.12,0-.01-.03-.03-.05-.05-.03-.02-.05-.05-.05-.06,0-.02.02-.07.08-.14.06-.07.09-.1.12-.1.07.02.11.02.12.02.01,0,.03-.01.04-.02,0-.02.02-.02.04-.03.1-.02.16,0,.18.09s.04.12.05.11c0,0,.02-.01.04-.03.02-.01.03-.02.04-.01l.02.06c.06,0,.14.01.23.04.08.02.16.02.23,0,.05-.01.08-.03.09-.05,0-.03.02-.04.03-.04.26-.06.38-.13.36-.2,0-.05,0-.12.01-.22l-.1-.24s-.04-.02-.1-.05-.09-.05-.1-.04c-.07.01-.23,0-.5-.02-.27-.03-.42-.06-.45-.09l-.1.03c-.06-.09-.15-.19-.28-.27-.09-.05-.16-.19-.21-.41,0-.04,0-.13.02-.27.02-.14.04-.21.07-.22.02,0,.04,0,.06,0,.03-.02.07-.09.11-.19.04-.09.08-.14.11-.15,0,0,.03,0,.05,0s.04.01.05,0c.01,0,.03-.01.04-.03l.08-.06s.05,0,.1,0c.04,0,.07,0,.09,0,.01,0,.03-.02.05-.04.02-.02.04-.04.06-.05.05-.01.13-.01.23,0,.1.01.18.01.22,0-.02,0,0,0,.09-.04.03-.01.05,0,.07.02.05.04.12.07.22.11.1.04.17.07.21.1.04.03.07.08.08.13,0,.01.02.07.05.17h-.1c-.03.05-.05.09-.05.12l-.19.07s-.08-.06-.1-.09c-.08-.02-.15-.02-.2-.02l-.05-.04-.08-.03-.04-.03c-.06.04-.09.06-.1.06-.02,0-.05,0-.09-.01-.04-.02-.07-.02-.09-.02-.02,0-.05.02-.08.06-.03.04-.06.05-.08.06.03,0,0,0-.09,0-.04,0-.06.02-.07.04,0,.04,0,.07-.03.11-.03.04-.03.1-.01.19.26.2.42.31.48.33.01,0,.03-.01.05-.03.02-.02.04-.03.05-.03.05-.01.1-.01.14,0,.04.01.08.02.12.03l.12-.04s.1.02.15.02c.03.01.06.04.09.09.12-.03.2-.02.23.04.03.05.06.07.1.06.02.05.04.1.06.16,0,.02.06.05.14.1,0,.03.03.09.07.16s.06.13.07.16c.04.19.01.31-.09.37-.01.07-.01.12,0,.15-.07.09-.1.14-.1.17-.06.04-.11.07-.15.07-.02,0-.04.02-.07.06-.03.04-.05.06-.07.06-.03,0-.06,0-.09,0-.1.07-.24.13-.42.16.04,0-.01,0-.16.02-.08.01-.12.03-.14.05h-.03Z"/>
        <path class="uuid-050b02ad-0ac4-4cc8-aaca-c06f11562d98" d="M13.61,20.39s0,.02,0,.04l-.07.08v.02c.03.12.04.19.02.19-.04.01-.07.08-.09.2-.05.01-.11.03-.18.06-.06.03-.11.04-.14.05,0,0-.04,0-.16.02,0,.05-.02.07-.03.08,0,0-.07,0-.19,0l-.07.03-.07-.03h-.04s-.05.02-.08.04c-.02,0-.15-.06-.38-.19-.05,0-.07.04-.07.1,0,.05-.02.09-.05.09-.11.03-.18.07-.2.12-.02.06-.07.09-.16.12-.04,0-.11.03-.2.06-.09.03-.15.05-.19.06-.15.03-.27.05-.35.06-.05,0-.12-.02-.2-.05s-.12-.06-.13-.06c-.05.01-.2-.03-.46-.14l-.31-.41s-.01-.03-.02-.04,0-.04,0-.06c0-.03,0-.05,0-.06,0-.02-.02-.05-.04-.08-.03-.04-.04-.07-.05-.09-.01-.05-.02-.12-.01-.22,0-.1,0-.17-.01-.21,0-.01-.01-.03-.03-.04-.02-.02-.03-.03-.04-.04,0-.03,0-.07.02-.11,0-.02-.02-.03-.06-.03-.1-.23-.16-.34-.16-.35v-.02s.05-.08.05-.08v-.04c-.04-.21.02-.34.21-.38.02,0,.04,0,.07.01.03.01.05.01.07.01.08-.02.11-.03.09-.03v.02s.04.09.07.14c.03.05.04.08.05.1,0,.02,0,.05,0,.08,0,.04-.01.06,0,.08.01.07.02.12.02.14,0,.03,0,.05,0,.06,0,.01.02.03.04.05s.03.04.04.05l-.03.08c.05.12.08.18.08.2,0,.04.02.09.04.15.02.06.03.11.04.14.04.19.07.3.09.32.03.06.12.13.27.22.06,0,.14.01.24.05.1.04.17.05.23.03.27-.06.46-.21.56-.44.09-.2.09-.45.03-.74-.02-.07-.04-.13-.08-.18-.02-.07-.03-.2-.04-.4-.08-.09-.12-.15-.13-.18,0-.02,0-.04,0-.07,0-.03.01-.05,0-.06,0-.01-.01-.03-.03-.04-.02-.01-.03-.02-.03-.02l.09-.21.21.04c.07-.04.11-.07.13-.07.01,0,.05.03.09.11.05.07.08.12.08.14.02.1.04.21.06.35,0,.06.03.13.08.22.05.09.09.16.1.2,0,.02,0,.05-.01.09-.01.04-.02.07-.02.09,0,.02.02.04.04.05.02.01.03.03.04.03,0,.11,0,.22.03.33,0,.01.02.02.06.02s.06.02.07.06c0,.02,0,.07.01.14.01,0,.09.05.21.13l.07-.02c.06.02.11.03.14.05l.07-.09.1.02s.05-.09.07-.14c.05-.09.08-.13.09-.13.01,0,.05,0,.12.03l.1-.02.05.06c.09.05.14.07.14.08Z"/>
        <path class="uuid-050b02ad-0ac4-4cc8-aaca-c06f11562d98" d="M17.05,20.39v.04l-.07.14h-.03s-.04,0-.07,0c-.03,0-.06,0-.07,0-.02,0-.05.02-.07.05-.03.03-.05.05-.07.06-.04,0-.09-.01-.13-.02-.07.06-.11.11-.11.14.01.04.02.07.03.1.01.07.01.13,0,.19s-.03.12-.01.17c.02.1.02.17-.01.19-.09.06-.13.09-.13.09-.01.02-.02.05-.02.09,0,.04-.04.08-.12.13l-.04.07h-.02s-.05.01-.08,0c-.04,0-.06,0-.08,0h-.01s-.06.06-.06.06c-.05.01-.1.04-.15.07-.09-.02-.14-.03-.15-.03-.01,0-.04.01-.07.03-.03.02-.06.03-.08.03-.05-.03-.09-.06-.11-.09-.01,0-.04,0-.07,0-.04,0-.06,0-.08-.03-.2-.23-.29-.33-.29-.3,0-.03,0-.07,0-.12.01-.06.01-.1,0-.13-.04-.19-.05-.3-.03-.32.08-.08.12-.14.14-.19.02-.07.03-.12.04-.16.02-.02.07-.07.14-.14.06-.06.11-.1.15-.11.08-.02.12-.02.11-.02.02,0,.05-.04.08-.09.08.01.13.02.15.01.07-.01.09-.07.07-.16-.02-.09-.06-.13-.13-.11-.04,0-.07.03-.09.08h-.03s-.06.01-.09,0c-.03,0-.06.03-.1.07-.04.04-.07.07-.1.07-.02,0-.04,0-.06,0s-.04,0-.05,0c-.02,0-.06.02-.13.04-.06.02-.11.03-.14.03-.05,0-.09,0-.13-.02l-.03-.04s-.05,0-.12,0c-.07,0-.12,0-.15-.04-.03-.03-.06-.06-.07-.09-.01-.03-.04-.04-.09-.03-.05,0-.09-.01-.13-.06,0-.01-.05-.05-.13-.13-.05-.05-.09-.1-.09-.13-.01-.06-.05-.14-.11-.22-.06-.08-.09-.12-.08-.11v-.03s.02-.05.02-.05c0-.01,0-.03-.01-.06-.01-.03-.02-.05-.02-.07,0-.02,0-.05.03-.08.02-.04.03-.06.03-.08-.03-.13-.03-.21.02-.22s.06-.04.05-.08c-.03-.14-.01-.25.06-.32.08-.07.15-.14.23-.2.05-.06.08-.09.1-.09.07-.02.12-.04.16-.06.03-.03.06-.04.08-.05.07.03.11.04.14.03-.02,0,.02-.01.12-.06.02,0,.05,0,.11.02.06.03.16.03.3,0,.06-.01.1-.05.11-.11l-.05-.17s.05-.03.06-.09c0-.06.02-.09.05-.09s.06-.02.1-.03c.04-.01.06-.02.08-.02.05-.01.1,0,.16.05.05.05.08.1.09.16.01.06.02.12.03.18,0,.04.01.07.02.09.01.03.05.08.11.17-.01.03-.02.05,0,.08,0,.03.03.06.06.11.03.05.05.08.06.11,0,.03.01.08,0,.15,0,.07,0,.12,0,.15l.12.53s.02.08.05.14c.03.06.05.11.05.14,0,.01,0,.03-.02.05-.01.02-.02.04-.02.05,0,0,.01.02.04.04.02.02.04.03.04.05,0,.02,0,.04-.01.08s-.02.06-.01.08c.02.11.15.15.37.13.03,0,.08.01.16.04.02,0,.04-.02.05-.03.03,0,.07,0,.12.03.06.03.09.05.09.07l.05.2ZM15.25,18.84c-.07-.02-.1-.05-.11-.09,0-.01,0-.04,0-.07,0-.02,0-.04-.01-.06-.04,0-.1,0-.18,0-.08,0-.14-.01-.16,0-.01,0-.03.01-.06.03-.02.02-.04.03-.05.03-.02,0-.05,0-.08-.01-.04-.01-.06-.02-.08-.01-.04,0-.1.07-.19.17-.09.11-.13.18-.12.23,0,.02.02.04.05.07.03.03.04.05.05.07,0,.01,0,.04,0,.07,0,.03,0,.06,0,.08l.11.06c.02.28.23.38.63.29.03,0,.05-.02.08-.05.02-.03.04-.04.06-.05.07-.02.13-.05.18-.1.07-.06.09-.13.07-.21,0,0-.02-.03-.04-.06v-.14c-.02-.13-.07-.21-.13-.23ZM15.67,20.88s-.11.06-.18.07v.08s-.09.05-.12.06v.07c.01.1.07.15.18.15,0,0,.1-.02.27-.05.02-.01.02-.03.02-.04-.02-.07,0-.11.07-.13-.09-.15-.17-.22-.23-.22Z"/>
        <path class="uuid-050b02ad-0ac4-4cc8-aaca-c06f11562d98" d="M20.96,18.98s.07.04.08.07h0s-.05.11-.14.26c-.09.16-.13.24-.14.24,0,0-.03,0-.06,0-.03,0-.05,0-.07.02,0,0-.02.01-.04.04-.02.02-.04.04-.06.04-.02,0-.05,0-.09,0-.04,0-.07-.01-.09,0-.03,0-.07.04-.11.09,0,0-.02-.01-.04-.03-.02-.02-.04-.02-.05-.02,0,0-.02.01-.04.03-.02.02-.04.03-.07.04-.07.01-.18-.02-.34-.12s-.26-.13-.31-.12c-.03,0-.07.05-.13.12-.05.07-.09.11-.11.11-.05.01-.14.04-.25.09-.11.04-.19.07-.25.08-.07.02-.15.02-.25,0s-.16-.02-.18-.02c-.05.01-.13.02-.22.01-.11,0-.18-.03-.2-.07-.12-.09-.23-.15-.32-.18-.02-.02-.06-.08-.1-.18-.03-.08-.08-.13-.14-.13-.03,0-.04,0-.05-.02,0-.02,0-.04,0-.08,0-.03,0-.06,0-.08,0-.02-.02-.06-.05-.11-.03-.05-.05-.09-.05-.12,0-.04,0-.09,0-.17,0-.07,0-.14,0-.18-.01-.05,0-.09,0-.13.01-.04.02-.07.02-.08-.04-.18-.04-.28.01-.31.03-.02.11-.13.24-.34.13-.2.26-.33.39-.37h.1s.11-.03.2-.07c.09-.04.16-.06.2-.07.03,0,.08,0,.16.05.07.04.13.06.17.05.04,0,.08,0,.13,0,.05,0,.08,0,.09,0,.05-.01.07-.05.05-.1,0-.01-.01-.03-.03-.05-.02-.02-.03-.04-.04-.06v-.03s.06-.04.06-.04c0-.07,0-.11.02-.13.01-.02.05-.04.12-.05,0,0,.03,0,.11-.01.03,0,.06-.02.11-.06h.01s.08.02.14.1c.04.07.07.12.08.17,0,.03,0,.07,0,.13,0,.06,0,.1,0,.13,0,.02.02.05.05.09s.05.07.05.09c0,.04.02.14.04.29.01.15.02.24.02.25,0,.03.02.07.05.11.03.05.05.09.05.11,0,0,.01.11.05.34.02.15.05.26.09.31l.16.04h0c.03.11.04.17.05.18.03.04.09.04.19.02.03,0,.05-.03.06-.07.01-.04.02-.06.03-.07.12-.03.19-.06.21-.11.02-.05.04-.07.06-.07.01,0,.03,0,.06,0,.03,0,.05,0,.06,0l.02.09h.13s.03.05.07.08ZM19.07,18.72c.03-.07.03-.13.02-.18,0-.04-.03-.09-.07-.15-.04-.07-.06-.12-.07-.16,0-.02,0-.05,0-.08s0-.06-.01-.08c-.01-.03-.03-.05-.06-.06-.24-.14-.41-.21-.48-.19-.02,0-.04.02-.04.05s-.02.05-.03.05c-.03,0-.07,0-.14-.02-.06-.02-.11-.03-.14-.02-.04,0-.07.03-.11.07-.04.04-.06.06-.07.06-.06.01-.1.03-.11.03-.03.03-.06.07-.09.11.01.07,0,.12,0,.16s-.03.06-.02.07l.03.08c-.03.13-.04.2-.04.21.05.21.12.37.21.48l.2.05c.06.16.19.21.41.16.01,0,.03-.01.06-.03s.05-.03.06-.03c.01,0,.03,0,.06.01.03,0,.05.01.07,0,.11-.02.18-.07.21-.15.04-.09.09-.16.15-.19.01-.02.02-.05.01-.07-.01-.05,0-.12.02-.19Z"/>
        <path class="uuid-050b02ad-0ac4-4cc8-aaca-c06f11562d98" d="M23.31,17.07c.03.05.05.09.05.1,0,0,0,.04-.03.1.06,0,.1.03.11.07v.02s-.08.02-.08.02c-.07.09-.16.15-.26.17-.05.01-.1,0-.14-.05-.04-.05-.08-.1-.12-.15v-.06s0-.05-.04-.04l-.04.02c-.06-.11-.13-.17-.19-.18-.09-.01-.14-.02-.15-.02-.09.06-.17.09-.23.12v.02c0,.05-.03.1-.13.15s-.14.1-.13.16c0,0,.01.02.03.02s.03.02.03.03c0,.02-.04.05-.12.08v.03s0,.04.03.05c-.02.06-.04.1-.07.12l.07.11s0,.06-.01.1c-.02.05-.02.09-.01.12,0,0,.02.07.07.18.01.04.02.08.02.14,0,.07,0,.11,0,.13,0,.01.01.04.03.07.01.03.02.06.02.09.05.05.07.09.07.1,0,.01,0,.03-.03.05-.02.02-.03.05-.03.07,0-.02,0,0,.03.07.01.03,0,.05,0,.06-.02,0-.04,0-.07,0v.1s-.1.04-.1.04c-.02,0-.08,0-.17-.02-.09-.01-.14-.04-.14-.06,0-.03-.02-.07-.04-.13s-.03-.1-.04-.13c0-.02,0-.04,0-.06,0-.02,0-.04,0-.05,0-.02-.02-.04-.05-.06-.03-.03-.04-.05-.05-.06,0,0,0-.03.02-.05.01-.02.02-.05.02-.06,0-.01-.02-.05-.04-.11,0-.02,0-.07,0-.16l-.08-.09s-.01-.04-.02-.06c-.01-.03-.02-.05-.02-.07,0-.02,0-.06,0-.11,0-.05,0-.08,0-.11,0-.01-.02-.03-.04-.06-.02-.03-.04-.05-.04-.06,0-.02,0-.03.01-.05-.02-.04-.04-.07-.05-.1,0-.04-.01-.11-.02-.21,0-.1,0-.17-.01-.2,0-.02-.02-.03-.05-.05l-.04-.07c-.04-.19-.04-.3.01-.34l-.05-.1s.05-.04.06-.1h.02s.04,0,.08,0c.03,0,.06.01.08,0,0,0,.02,0,.09-.03.04-.01.07-.02.1-.01.03,0,.04.02.05.06,0,.02,0,.04,0,.07s0,.05,0,.06c0,0,.02.03.05.05.03.03.05.05.05.08.03.11.03.16.03.15h.01s.06-.03.07-.07h.1c.05-.11.11-.18.18-.2.11-.02.17-.04.18-.05l.03-.08h.02s.27-.06.27-.06c.03,0,.07,0,.11,0,.04.01.07.02.09.02,0,0,.02-.01.03-.02.01-.02.02-.02.03-.03.02.05.09.11.23.18.15.08.26.16.31.25.01.06.03.11.06.17Z"/>
      </g>
      <g>
        <path class="uuid-050b02ad-0ac4-4cc8-aaca-c06f11562d98" d="M8.55,12.06l-.11-.55s.1-.03.15-.04c.05.19.11.37.16.56-.07.01-.13.02-.19.04Z"/>
        <path class="uuid-050b02ad-0ac4-4cc8-aaca-c06f11562d98" d="M2.65,13.12c-.43-.02-.77-.06-1.1-.05-.34.01-.56-.12-.63-.45-.15-.78-.3-1.57-.43-2.36-.1-.67-.18-1.33-.4-2-.31-.94.19-1.75.89-2.35,1.23-1.05,2.64-1.81,4.14-2.41,1.64-.67,3.29-1.33,4.95-1.96.61-.23,1.26-.39,1.9-.53,1.38-.29,2.75-.64,4.14-.8,1.41-.17,2.86-.28,4.27-.16,1.11.09,2.25.36,3.12,1.26.8.83.95,1.85,1.03,2.92.07.93,0,1.89.45,2.81-.59.65-.7,1.37-.55,2.27.29,1.72.41,3.47.6,5.21.02.14.05.28.07.42.31,1.92.57,3.86.93,5.77.21,1.09.54,2.16.87,3.22.13.4.05.66-.24.91-2.24,2-4.71,3.62-7.47,4.8-1.24.53-2.54.66-3.86.75-.83.06-1.66,0-2.48.09-1.68.21-3.31-.06-4.92-.48-.54-.14-1.02-.5-1.52-.78-.08-.05-.13-.18-.16-.29-.21-.71-.41-1.43-.6-2.15-.32-1.22-.65-2.44-.92-3.67-.24-1.12-.38-2.25-.58-3.38-.18-1.02-.34-2.04-.57-3.05-.27-1.17-.62-2.32-.96-3.59ZM16.99,10.76c.17-.04.34-.06.5-.13,1.02-.46,2.04-.91,3.05-1.39.9-.43,1.83-.83,2.67-1.36,1.13-.71,1.14-.71.87-1.93-.05-.24-.1-.48-.17-.84-.66.93-1.5,1.45-2.41,1.89-.51.25-1,.56-1.51.81-.87.42-1.74.87-2.65,1.21-1.02.39-2.07.68-3.11,1-.46.14-.93.25-1.4.38.03.51.05.97.08,1.57-.48-.51-.35-1.02-.44-1.47-1.75.21-3.47.41-5.29.62.12.47.21.81.3,1.18,1.01-.02,1.94-.04,2.84-.06.18-.42-.24-.83.2-1.26.06.44.1.8.14,1.15,1.46.17,2.81-.14,4.1-.62.17-.5-.24-.97.14-1.43.04.4.09.8.14,1.28.71-.14,1.38-.24,1.97-.62l-.02.02ZM3.4,13.21c.16.8.32,1.54.47,2.29.3,1.46.6,2.93.88,4.39.17.92.25,1.87.47,2.78.43,1.75.95,3.47,1.39,5.22.22.88.79,1.36,1.61,1.53,1,.2,2.02.44,3.03.47,1.6.04,3.2-.03,4.79-.14.76-.05,1.55-.2,2.27-.47,2.61-.98,4.99-2.39,7.12-4.2.55-.47,1.06-.94.54-1.74-.04-.07-.03-.17-.05-.25-.25-1.37-.5-2.75-.75-4.12-.42-2.34-.79-4.68-.97-7.05-.09-1.13-.44-2.24-.68-3.39-.14.06-.3.11-.45.18-2.53,1.22-5.01,2.55-7.72,3.35-1.4.41-2.79.78-4.29.78-1.8,0-3.6.14-5.4.22-.77.04-1.53.1-2.29.15ZM20.53.89c0-.06-.01-.13-.02-.19-.22-.02-.44-.06-.65-.07-2.28-.13-4.52.19-6.73.7-.87.2-1.74.37-2.58.66-1.32.46-2.6,1.05-3.93,1.49-1.57.52-2.99,1.3-4.38,2.16-.65.4-1.19.89-1.55,1.57-.19.35-.27.74-.09,1.07.37.68.84,1.29,1.63,1.53.24.07.48.17.72.26.98.34,1.99.58,3.03.49,1.37-.13,2.74-.27,4.1-.43.74-.08,1.49-.13,2.2-.31,1.72-.45,3.44-.91,5.11-1.49,1.16-.4,2.24-1.01,3.35-1.53-.02-.06-.04-.11-.07-.17l-.85.18c.52-.51,1.17-.83,1.83-.82.49,0,.74-.19,1.02-.47.2-.2.36-.44.54-.67.9-1.14.76-2.26-.38-3.19-1.83.49-3.64.98-5.46,1.47,1.58-.82,3.33-1.14,5.09-1.69-.31-.28-.56-.48-.95-.41-.62.11-1.24.2-1.86.31-1.31.23-2.54.68-3.74,1.24-.12.05-.28,0-.42,0,1.61-.8,3.25-1.45,5.02-1.68ZM4.89,12.26c-.6-.24,0-1.31-1.04-1.19.03.47.06.93.08,1.39.7.15,1.27.05,1.85-.15-.04-.38-.07-.71-.11-1.09-.31.01-.58.02-.9.04.04.35.07.64.11,1ZM3.58,10.92c-.25-.06-.49-.11-.82-.19.06.65.11,1.23.16,1.82.32.01.54.02.79.03-.04-.55-.08-1.05-.13-1.66ZM6.05,12.42c.47-.06.81-.1,1.12-.14l-.24-1.18c-.31.05-.61.1-.96.15.03.39.05.72.09,1.17ZM2.67,12.56c-.04-.32-.09-.54-.1-.77-.02-.26,0-.51-.02-.77-.02-.44-.22-.63-.66-.47-.03,1.19.11,1.59.78,2.01ZM1.86,12.35c-.11-.66-.21-1.33-.33-1.99-.01-.06-.16-.1-.36-.21,0,.88.35,1.53.68,2.19Z"/>
        <path class="uuid-050b02ad-0ac4-4cc8-aaca-c06f11562d98" d="M22.61,4.91c-1.17.2-2.23.68-3.32,1.1-.6.23-1.23.42-1.92.26.86-.28,1.71-.58,2.58-.83.87-.25,1.7-.75,2.66-.53Z"/>
        <path class="uuid-050b02ad-0ac4-4cc8-aaca-c06f11562d98" d="M19.69,5.01c.41-.49,2.7-1.2,3.31-1.03-1.1.34-2.21.68-3.31,1.03Z"/>
        <path class="uuid-050b02ad-0ac4-4cc8-aaca-c06f11562d98" d="M22.68,2.44c-1.27.37-2.46.71-3.72,1.08.76-.63,2.94-1.28,3.72-1.08Z"/>
        <path class="uuid-050b02ad-0ac4-4cc8-aaca-c06f11562d98" d="M23.38,2.8c-1,.32-2,.65-3,.97.51-.51,2.2-1.08,3-.97Z"/>
        <path class="uuid-050b02ad-0ac4-4cc8-aaca-c06f11562d98" d="M17,10.74c-.46-.2-.3-.63-.36-.97.31.26.27.65.34.99l.02-.02Z"/>
        <path class="uuid-050b02ad-0ac4-4cc8-aaca-c06f11562d98" d="M19.15,8.78c0,.21,0,.43,0,.64-.05,0-.1,0-.16.01-.03-.22-.06-.44-.09-.67.08,0,.16,0,.24.01Z"/>
      </g>
    </g>
  </g>
</svg>